<?xml version="1.0" encoding="UTF-8" standalone="no"?>
<svg
   width="46.697918"
   zoomAndPan="magnify"
   viewBox="0 0 35.023438 27.730469"
   height="36.973957"
   preserveAspectRatio="xMidYMid meet"
   version="1.0"
   id="svg11"
   sodipodi:docname="favicon.svg"
   inkscape:version="1.1.1 (3bf5ae0d25, 2021-09-20)"
   xmlns:inkscape="http://www.inkscape.org/namespaces/inkscape"
   xmlns:sodipodi="http://sodipodi.sourceforge.net/DTD/sodipodi-0.dtd"
   xmlns="http://www.w3.org/2000/svg"
   xmlns:svg="http://www.w3.org/2000/svg">
  <sodipodi:namedview
     id="namedview13"
     pagecolor="#505050"
     bordercolor="#eeeeee"
     borderopacity="1"
     inkscape:pageshadow="0"
     inkscape:pageopacity="0"
     inkscape:pagecheckerboard="0"
     showgrid="false"
     fit-margin-top="0"
     fit-margin-left="0"
     fit-margin-right="0"
     fit-margin-bottom="0"
     inkscape:zoom="13.416667"
     inkscape:cx="23.291925"
     inkscape:cy="18.409938"
     inkscape:window-width="1920"
     inkscape:window-height="1031"
     inkscape:window-x="1920"
     inkscape:window-y="28"
     inkscape:window-maximized="1"
     inkscape:current-layer="svg11" />
  <defs
     id="defs5">
    <clipPath
       id="8f560a6ecd">
      <path
         d="M 0.488281,4 H 35.511719 V 32 H 0.488281 Z m 0,0"
         clip-rule="nonzero"
         id="path2" />
    </clipPath>
  </defs>
  <g
     clip-path="url(#8f560a6ecd)"
     id="g9"
     transform="translate(-0.488281,-4.175781)">
    <path
       fill="#131a43"
       d="M 27.082031,4.175781 21.410156,11.808594 18.421875,15.363281 13.089844,15.625 H 0.367188 v 4.835938 H 15.125 C 13.0625,23.136719 11.046875,25.871094 9.058594,28.601562 8.261719,29.691406 6.816406,31.3125 8.765625,31.90625 13.175781,24.824219 18.777344,18.324219 23.667969,11.554688 24.835938,9.933594 29.117188,5.921875 27.082031,4.175781 M 77.960938,5.558594 C 73.421875,6.175781 69.519531,8.585938 67.925781,13.082031 65.214844,20.734375 71.140625,30.070312 79.742188,29 83.882812,28.484375 87.621094,26.625 89.570312,22.75 93.582031,14.773438 87.179688,4.304688 77.960938,5.558594 M 46.925781,5.957031 V 9.773438 H 58.628906 C 54.726562,15.675781 46.671875,21.226562 46.671875,28.601562 h 18.0625 V 24.785156 H 52.011719 c 2.554687,-2.949218 4.886719,-6.117187 7.328125,-9.160156 2.671875,-3.324219 4.886718,-5.285156 4.886718,-9.667969 H 46.925781 m 47.574219,0 c 0,5.535157 -1.625,14.164063 1.296875,19.082031 3.417969,5.761719 13.578125,5.292969 16.429685,-0.761718 2.32422,-4.941406 0.84375,-12.949219 0.84375,-18.320313 h -4.32422 v 11.195313 c 0,1.886718 0.23047,3.921875 -0.85156,5.585937 -2.14844,3.316407 -7.01172,2.734375 -8.585936,-0.753906 -0.769532,-1.703125 -0.484375,-3.769531 -0.484375,-5.59375 V 5.957031 H 94.5 m 21.37109,22.644531 4.39844,-0.261718 2.16406,-4.828125 5.14063,-12.71875 3.8125,9.414062 -5.46484,0.257813 -1.65625,3.554687 c 2.07031,0 6.80468,-0.886719 8.54296,0.261719 1.07813,0.714844 1.60547,3.125 1.88672,4.320312 h 4.83594 c -1.94141,-5.703124 -4.64844,-11.238281 -6.98047,-16.792968 -0.56641,-1.347656 -1.43359,-5.03125 -2.79687,-5.695313 -0.96485,-0.472656 -3.98047,-0.457031 -4.67188,0.433594 -1.58594,2.042969 -2.3789,5.417969 -3.36328,7.808594 -1.91016,4.621093 -4.69141,9.375 -5.84766,14.246093 M 142.83594,5.957031 v 22.644531 h 4.32422 v -7.125 l 4.24218,0.261719 4.9961,6.601563 4.7539,0.261718 -5.08593,-7.886718 c 5.34375,-2.238282 6.98828,-10.304688 1.52734,-13.617188 -3.87891,-2.351562 -10.38281,-1.140625 -14.75781,-1.140625 m 22.89843,0 v 22.644531 h 4.32422 V 5.957031 h -4.32422 M 78.21875,9.597656 C 87.886719,8.25 89.339844,23.648438 79.742188,24.921875 c -9.558594,1.273437 -11.035157,-14 -1.523438,-15.324219 m 68.94141,7.808594 V 9.773438 c 2.125,0 6.05468,-0.410157 7.86328,0.765624 2.16015,1.40625 2.07031,5.28125 -0.23828,6.496094 -1.96094,1.03125 -5.44922,0.371094 -7.625,0.371094 M 18.941406,20.460938 H 35.476562 V 15.625 h -8.902343 l -4.050781,0.261719 z m 0,0"
       fill-opacity="1"
       fill-rule="nonzero"
       id="path7" />
  </g>
</svg>
