<?xml version="1.0" encoding="UTF-8" standalone="no"?>
<!-- Created with Inkscape (http://www.inkscape.org/) -->

<svg
   width="830.96497"
   height="183.25262"
   version="1.1"
   viewBox="0 0 830.96497 183.25262"
   id="svg16"
   sodipodi:docname="ZOUARI-logo-blue.svg"
   inkscape:version="1.1.1 (3bf5ae0d25, 2021-09-20)"
   xmlns:inkscape="http://www.inkscape.org/namespaces/inkscape"
   xmlns:sodipodi="http://sodipodi.sourceforge.net/DTD/sodipodi-0.dtd"
   xmlns="http://www.w3.org/2000/svg"
   xmlns:svg="http://www.w3.org/2000/svg">
  <defs
     id="defs20" />
  <sodipodi:namedview
     id="namedview18"
     pagecolor="#505050"
     bordercolor="#eeeeee"
     borderopacity="1"
     inkscape:pageshadow="0"
     inkscape:pageopacity="0"
     inkscape:pagecheckerboard="0"
     showgrid="false"
     fit-margin-top="10"
     fit-margin-left="10"
     fit-margin-right="10"
     fit-margin-bottom="10"
     inkscape:zoom="0.88940775"
     inkscape:cx="404.20156"
     inkscape:cy="-33.730311"
     inkscape:window-width="1920"
     inkscape:window-height="1059"
     inkscape:window-x="0"
     inkscape:window-y="0"
     inkscape:window-maximized="1"
     inkscape:current-layer="svg16" />
  <path
     d="m 207.33592,175.84789 c -31.788,-5.7696 -58.352,-30.721 -66.566,-62.524 -1.6998,-6.582 -2.1899,-11.321 -2.172,-20.999999 0.0481,-25.963 8.3332,-45.282 27.019,-63 16.878,-16.004 39.155,-24.1009998 62.354,-22.6629998 22.255,1.379 40.166,9.6169998 56,25.7559998 16.726,17.049 24.844,38.549 23.728,62.849 -1.0438,22.744999 -8.7393,40.482999 -24.461,56.380999 -20.17,20.397 -47.991,29.268 -75.903,24.201 z m 25.893,-34.991 c 20.39,-4.3208 35.619,-20.704 38.907,-41.853999 3.6564,-23.519 -10.996,-47.858 -32.917,-54.678 -18.993,-5.9098 -37.545,-1.5432 -51.121,12.032 -27.588,27.588 -14.243,75.227999 23.645,84.412999 7.4961,1.8171 13.216,1.8406 21.485,0.0883 z m 146.11,35.437 c -24.069,-4.3154 -42.133,-19.61 -50.967,-43.153 -2.7235,-7.258 -2.7503,-7.5718 -3.3208,-38.816999 -0.3163,-17.325 -0.3501,-43.65 -0.0751,-58.5 l 0.5,-26.9999998 h 33 l 0.72172,52.9999998 c 0.44213,32.468 1.1465,54.742999 1.8183,57.499999 4.3082,17.68 24.492,27.417 41.052,19.805 7.8236,-3.5961 11.417,-7.0633 15.126,-14.594 l 3.2823,-6.6649 1,-109.0499988 15.866,-0.27598 c 11.183,-0.19452 16.291,0.0762 17.304,0.91711 1.2266,1.0179998 1.3832,9.2766998 1.067,56.2759998 -0.41328,61.429999 -0.38925,61.188999 -7.5333,75.503999 -4.6552,9.3281 -15.601,21.185 -24.329,26.354 -12.506,7.4067 -31.261,11.07 -44.512,8.6944 z M 7.5789153,173.74209 c -0.33385,-0.86998 -0.60699,-7.2458 -0.60699,-14.168 v -12.587 l 5.2035997,-7.0816 c 6.9684,-9.4834 35.866,-50.486999 59.453,-84.359999 4.4863,-6.4426 7.9472,-12.053 7.691,-12.468 -0.25626,-0.41464 -16.384,-0.7539 -35.84,-0.7539 -40.7279997,0 -37.3309997,1.0186 -35.5089997,-10.649 1.3683999,-8.7626 5.1793997,-16.623 9.7498997,-20.109 l 3.594,-2.7416998 H 126.47443 l 0.5563,27.4789998 -8.2124,11.761 c -4.5168,6.4684 -13.445,19.186 -19.839005,28.261 -6.3949,9.075 -16.522,23.475 -22.505,31.999999 -5.983,8.525 -13.46,19.084 -16.615,23.465 -3.155,4.3808 -5.5182,8.3183 -5.2514,8.75 0.26679,0.43168 17.348,0.78487 37.957,0.78487 33.150005,0 37.542005,0.18134 38.076005,1.5721 1.0243,2.6692 -1.5789,15.332 -4.1641,20.255 -2.9116,5.545 -4.0593,6.9924 -7.8868,9.9464 l -2.8849,2.2265 H 61.947125 c -48.098,0 -53.8219997,-0.16655 -54.3649997,-1.5818 z m 456.1100047,0.33179 c -0.59819,-1.6792 -0.47099,-1.9954 24.034,-59.75 11.785,-27.774999 25.614,-60.399999 30.73,-72.499999 5.1167,-12.1 10.457,-24.6 11.866,-27.778 l 2.5631,-5.7784998 27.442,0.55699 6.1908,14.4999998 c 3.405,7.975 9.6808,22.825 13.946,33 4.2652,10.175 13.826,32.675 21.245,49.999999 17.785,41.532 27.261,64.882 27.261,67.178 0,1.7643 -0.98688,1.853 -17.75,1.595 l -17.75,-0.27307 -2,-4.4665 c -1.1,-2.4566 -3.35,-7.1816 -5,-10.5 l -3,-6.0335 -16.598,-0.27349 c -19.801,-0.32626 -18.087,0.73575 -26.925,-16.688 -6.1602,-12.145 -7.1302,-15.882 -4.3956,-16.931 0.86998,-0.33385 8.745,-0.60699 17.5,-0.60699 10.116,0 15.918,-0.37046 15.918,-1.0163 0,-0.55896 -2.3008,-6.5215 -5.1129,-13.25 -2.8121,-6.728499 -7.5651,-18.308999 -10.562,-25.733999 -2.9969,-7.425 -5.8205,-13.877 -6.274,-14.337 -0.97786,-0.99246 -3.8794,5.0886 -13.043,27.337 -3.738,9.074999 -9.1368,22.124999 -11.997,28.999999 -2.8602,6.875 -8.8117,21.275 -13.225,32 -4.4131,10.725 -8.4752,20.062 -9.0269,20.75 -0.7328,0.91315 -5.6636,1.25 -18.297,1.25 -12.931,0 -17.407,-0.31535 -17.74,-1.25 z m 177.89,-0.30813 c -0.79925,-2.0828 -0.8081,-161.779999 -0.009,-163.8599988 0.53843,-1.4031 4.8064,-1.5818 37.79,-1.5818 41.531,0 43.82,0.27578 55.743,6.7155998 9.3695,5.0607 15.401,10.519 20.855,18.874 6.9945,10.715 9.5076,19.426 9.4946,32.911 -0.0113,11.647 -1.2243,16.886 -6.2508,27 -4.0182,8.084999 -8.6207,13.674999 -15.585,18.927999 -5.8553,4.417 -6.4189,5.1434 -5.432,7 0.60569,1.1394 4.918,8.3716 9.583,16.072 18.69,30.85 22.468,37.627 21.51,38.585 -0.56607,0.56607 -8.7313,0.8484 -19.888,0.68765 l -18.927,-0.27272 -6.2867,-10.5 c -3.4577,-5.775 -9.6453,-16.407 -13.75,-23.628 -4.1049,-7.2202 -8.0897,-13.647 -8.8551,-14.283 -0.92562,-0.7682 -5.3628,-1.0603 -13.25,-0.87231 l -11.858,0.28267 -1,49 -16.634,0.27365 c -14.511,0.23873 -16.713,0.0687 -17.25,-1.3318 z m 78.462,-85.633999 c 6.8415,-4.022 11.922,-12.764 11.922,-20.515 0,-7.2935 -2.1578,-12.5 -7.4176,-17.898 -6.7275,-6.9044 -9.3218,-7.5087 -30.778,-7.1692 l -17.305,0.27385 -0.26936,22.978 c -0.14815,12.638 -0.0366,23.585 0.24797,24.326 0.41528,1.0822 4.3149,1.2837 19.769,1.0216 18.822,-0.3192 19.354,-0.38662 23.831,-3.0181 z m 69.538,85.633999 c -0.92863,-2.42 -0.70984,-162.749999 0.22409,-164.2199988 0.61463,-0.9685 4.764,-1.2093 17.235,-1 l 16.425,0.27561 V 174.82136 l -16.634,0.27365 c -14.511,0.23873 -16.713,0.0687 -17.25,-1.3318 z"
     fill="#b0cadb"
     id="path2"
     style="fill:#131a43;fill-opacity:1" />
  <path
     d="m 207.47592,174.91789 c -21.551,-4.204 -40.837,-16.867 -53.428,-35.081 -10.4,-15.044 -14.532,-28.97 -14.396,-48.509999 0.10575,-15.136 2.2555,-24.351 8.7485,-37.5 7.8095,-15.815 20.672,-29.031 35.423,-36.397 19.234,-9.6039998 36.57,-12.1579998 55.71,-8.2076998 16.914,3.4907998 28.096,9.2764998 40.674,21.0449998 16.853,15.768 25.394,34.171 26.49,57.082 1.9265,40.254999 -23.053,74.971999 -61.886,86.007999 -9.4936,2.698 -27.622,3.456 -37.336,1.5611 z m 26.26,-33.097 c 24.711,-5.8262 41.729,-28.692 39.888,-53.591999 -0.98991,-13.385 -6.6883,-25.02 -16.998,-34.707 -6.7799,-6.3702 -13.943,-9.8258 -24.804,-11.966 -34.26,-6.7495 -65.675,25.375 -58.45,59.769999 2.3171,11.031 7.4573,20.724 14.395,27.145 13.368,12.373 29.832,17.154 45.969,13.35 z m 144.74,33.089 c -25.441,-4.9403 -44.203,-22.464 -50.528,-47.193 -1.846,-7.2179 -1.972,-11.246 -1.972,-63.049999 V 9.3268912 h 15.531 c 11.535,0 15.639,0.32162 15.95,1.2499998 0.23017,0.6875 0.58239,24.875 0.78271,53.75 0.35129,50.634999 0.43925,52.688999 2.4765,57.808999 2.7251,6.8494 6.2358,11.39 11.726,15.168 16.067,11.055 37.803,4.8453 46.124,-13.177 l 2.9092,-6.3005 1,-107.9999988 31.449,-0.55053 0.5892,2.3474998 c 0.32406,1.2912 0.42279,26.39 0.2194,55.775 -0.4142,59.843999 -0.23775,58.197999 -7.9233,73.893999 -12.004,24.514 -41.214,38.884 -68.335,33.618 z M 8.6459153,173.65939 c -0.36667,-0.36666 -0.66667,-6.374 -0.66667,-13.35 0,-14.424 -1.3168,-11.295 13.0759997,-31.073 6.6878,-9.19 33.877,-47.817999 53.193,-75.570999 3.723,-5.3492 6.6107,-10.201 6.4172,-10.783 -0.23433,-0.70398 -12.348,-1.224 -36.269,-1.557 l -35.9169997,-0.5 0.30037,-5.5 c 0.6439299,-11.791 5.9426997,-22.001 12.9089997,-24.875 2.0084,-0.8286398 16.94,-1.0773998 53.29,-0.8879598 l 50.500005,0.26325 0.27729,13.0019998 0.2773,13.002 -8.7137,12.498 c -21.503005,30.842 -48.790005,69.605999 -59.042005,83.873999 -2.9146,4.0564 -5.2993,7.9886 -5.2993,8.7381 0,1.1221 6.7561,1.4091 38.25,1.6247 l 38.250005,0.26188 -0.25992,5 c -0.55962,10.766 -4.7799,19.925 -11.162,24.226 l -3.3741,2.2738 H 61.997385 c -28.977,0 -52.9849998,-0.3 -53.3519997,-0.66667 z m 456.3300047,-1.2994 c 0,-1.0813 0.66269,-3.4438 1.4726,-5.25 0.80991,-1.8062 12.993,-30.509 27.073,-63.784 36.542,-86.359999 38.685,-91.360999 39.746,-92.749999 0.67164,-0.8801098 4.5804,-1.2499998 13.209,-1.2499998 8.6218,0 12.542,0.3706 13.222,1.2499998 0.53177,0.6875 2.5604,5.075 4.508,9.75 9.3594,22.466 26.177,62.24 36.998,87.499999 16.946,39.559 26.772,63.461 26.772,65.122 0,1.1894 -2.8435,1.3803 -17.161,1.152 l -17.161,-0.27361 -3.9346,-9.5 c -2.164,-5.225 -4.3968,-10.062 -4.9618,-10.75 -0.74793,-0.91017 -5.6216,-1.25 -17.927,-1.25 h -16.9 l -3.0489,-4.75 c -4.653,-7.2492 -12.077,-23.128 -11.709,-25.046 0.28849,-1.5049 2.3716,-1.7627 17.815,-2.2042 14.854,-0.42469 17.439,-0.72594 17.161,-2 -0.64354,-2.9564 -22.085,-54.310999 -23.099,-55.324999 -1.1964,-1.1964 -3.6679,3.9364 -14.602,30.325 -3.988,9.624999 -11.538,27.849999 -16.779,40.499999 -15.174,36.63 -15.653,37.745 -16.825,39.157 -0.84938,1.0234 -5.0073,1.3426 -17.492,1.3426 -15.617,0 -16.378,-0.0913 -16.378,-1.9661 z m 177.47,0.74157 c -0.2677,-0.70152 -0.37048,-37.726 -0.2284,-82.275999 l 0.25834,-80.9999998 35.5,-0.29635 c 39.553,-0.33019 43.553,0.0663 54.793,5.4316998 18.034,8.6081 30.387,27.18 31.894,47.95 1.4241,19.623 -8.0906,39.975999 -23.611,50.505999 -2.7633,1.8748 -5.0358,3.7265 -5.05,4.115 -0.0142,0.3885 3.8662,7.1385 8.623,15 18.248,30.158 23.351,38.979 23.351,40.362 0,1.1901 -3.103,1.4315 -18.403,1.4315 h -18.403 l -12.041,-20.75 c -6.6227,-11.412 -13.188,-22.676 -14.59,-25.029 l -2.5489,-4.2791 -26.514,0.55815 -1,49 -15.772,0.2755 c -12.068,0.21081 -15.886,-0.024 -16.258,-1 z m 76.594,-83.525999 c 12.767,-6.475 17.527,-21.854 10.806,-34.915 -2.8493,-5.5368 -9.1996,-10.808 -14.855,-12.331 -2.2441,-0.60427 -11.465,-0.93443 -21.708,-0.77722 l -17.807,0.2733 -0.26864,23.98 c -0.14776,13.189 -0.0494,24.552 0.21861,25.25 0.37001,0.96423 5.0236,1.2698 19.339,1.2698 18.585,0 18.929,-0.039 24.275,-2.75 z m 71.406,83.525999 c -0.2677,-0.70152 -0.37048,-37.726 -0.2284,-82.275999 l 0.25834,-80.9999998 32.512,-0.5496 -0.25581,82.2749998 -0.25582,82.274999 -15.772,0.2755 c -12.068,0.21081 -15.886,-0.024 -16.258,-1 z"
     fill="#8fb1ca"
     id="path4"
     style="fill:#131a43;fill-opacity:1" />
  <path
     d="m 204.40592,173.89789 c -14.029,-3.1741 -30.098,-12.161 -40.334,-22.557 -11.48,-11.66 -18.228,-24.049 -22.238,-40.829 -2.6978,-11.288999 -2.2022,-30.704999 1.0723,-42.014999 6.3953,-22.089 22.221,-41.236 42.24,-51.105 13.963,-6.8833 23.08,-9.0665998 37.863,-9.0665998 32.533,0 60.203,16.9089998 74.454,45.4999998 6.3444,12.728 8.677,22.391 8.8106,36.5 0.23928,25.256999 -8.2288,45.232999 -26.554,62.639999 -9.2663,8.8021 -18.368,14.278 -30.742,18.496 -8.7263,2.9745 -10.681,3.2615 -24,3.524 -9.6648,0.19051 -16.525,-0.17229 -20.572,-1.088 z m 34.223,-33.091 c 16.86,-5.6597 28.094,-17.214 33.385,-34.336 2.1796,-7.054199 2.5972,-19.683999 0.895,-27.068999 -2.8708,-12.455 -14.746,-27.933 -25.662,-33.447 -10.805,-5.4581 -26.656,-7.1702 -37.338,-4.0328 -27.312,8.0224 -43.356,35.681 -36.36,62.679999 4.6245,17.847 18.87,32.46 36.34,37.28 8.084,2.23 20.251,1.7751 28.74,-1.0745 z m 136.57,32.997 c -13.28,-2.8841 -28.301,-12.512 -35.851,-22.978 -5.4947,-7.6177 -10.108,-18.129 -11.851,-27 -1.3318,-6.7799 -1.5297,-16.083 -1.2974,-60.999999 l 0.27413,-52.9999998 13.5,-0.28799 c 7.425,-0.15839 14.494,-0.0419 15.71,0.25889 l 2.2095,0.5468798 0.2905,54.241 0.29049,54.240999 2.6198,5.5865 c 11.315,24.128 43.965,25.228 56.801,1.9135 l 3.5788,-6.5 0.28348,-53.937999 c 0.19802,-37.679 0.61821,-54.341 1.3939,-55.276 0.85486,-1.0299998 4.4726,-1.2744998 15.717,-1.0620998 l 14.606,0.27591 0.26504,53.4999998 c 0.22077,44.563999 0.0123,54.752999 -1.2481,60.999999 -4.8775,24.176 -24.7,44.542 -48.202,49.521 -8.4104,1.782 -20.77,1.7637 -29.09,-0.0432 z M 9.6789152,173.69234 c -0.38497,-0.38497 -0.6999499,-6.661 -0.6999499,-13.947 v -13.247 l 6.1899997,-8.3366 c 3.4045,-4.5851 16.76,-23.412 29.679,-41.836999 12.919,-18.425 26.558,-37.872 30.31,-43.215 3.7515,-5.3434 6.8209,-10.175 6.8209,-10.738 0,-0.67284 -12.393,-1.1121 -36.25,-1.2848 l -36.2499998,-0.26247 -0.30988,-3.7419 c -0.4315799,-5.2114 2.3921998,-15.537 5.4622998,-19.973 1.414,-2.0432 4.4715,-4.6349 6.7946,-5.7595 4.1036,-1.9864998 5.629,-2.0372998 53.638,-1.7851998 l 49.415005,0.25952 0.58697,12.4999998 0.58698,12.5 -8.0133,12 c -4.4073,6.6 -12.797,18.75 -18.643005,27 -5.8464,8.25 -15.523,21.975 -21.503,30.499999 -5.9802,8.525 -14.167,20.073 -18.194,25.662 -4.027,5.589 -7.3206,10.646 -7.3206,11.238 0,0.74518 11.769,1.157 38.25,1.3383 l 38.250005,0.26188 -0.14243,6.5646 c -0.17858,8.2308 -3.0878,15.289 -8.4668,20.543 l -3.9857,3.8926 -52.753005,0.28329 c -29.014,0.15581 -53.068,-0.0317 -53.4529998,-0.41667 z M 466.17892,173.46888 c -1.0249,-0.65007 -0.63301,-2.5124 1.838,-8.7347 2.9536,-7.4374 25.243,-60.104 41.437,-97.907999 4.0051,-9.35 11.007,-25.775 15.56,-36.5 4.5526,-10.725 8.7704,-19.831 9.3728,-20.235 0.60244,-0.4040798 6.1475,-0.7415798 12.322,-0.7499998 10.555,-0.0144 11.314,0.11944 12.678,2.2346998 1.6083,2.4938 7.4333,15.849 19.082,43.75 4.2482,10.175 10.996,26.15 14.995,35.5 30.783,71.967999 34.716,81.754999 33.234,82.695999 -1.7906,1.1378 -29.533,0.973 -31.703,-0.18828 -1.0198,-0.54578 -2.4109,-2.6833 -3.0914,-4.75 -0.68048,-2.0667 -2.4977,-6.5702 -4.0383,-10.008 l -2.801,-6.25 h -34.071 l -2.9428,-4.0624 c -3.3783,-4.6636 -11.806,-21.459 -12.263,-24.438 -0.29528,-1.926 0.33354,-2.0101 16.984,-2.2738 13.698,-0.21691 17.402,-0.56421 17.827,-1.6717 0.29504,-0.76888 -1.6953,-6.7207 -4.4231,-13.226 -2.7277,-6.5055 -7.7747,-18.802999 -11.216,-27.327999 -3.4408,-8.525 -6.8561,-16.146 -7.5894,-16.936 -1.5499,-1.6695 -4.0251,3.2982 -15.414,30.936 -25.816,62.649999 -32.933,79.357999 -34.124,80.112999 -1.7335,1.0985 -29.928,1.1256 -31.654,0.0304 z m 177.26,-0.39316 c -0.26233,-0.6875 -0.3607,-37.7 -0.21862,-82.249999 l 0.25834,-80.9999998 h 37 c 36.421,0 37.115,0.0378 44.376,2.4157998 23.975,7.8527 39.121,28.782 39.205,54.175 0.0622,18.822 -7.7066,35.185999 -21.519,45.325999 -3.6091,2.6497 -6.5619,5.4292 -6.5619,6.1767 0,0.7475 7.2311,13.287 16.069,27.866 8.8379,14.579 15.786,26.965 15.441,27.524 -0.38662,0.62558 -7.3287,1.0164 -18.055,1.0164 h -17.427 l -2.3689,-3.75 c -2.6018,-4.1186 -18.473,-31.372 -23.586,-40.5 l -3.2205,-5.75 h -27.853 v 23.8 c 0,17.178 -0.33389,24.134 -1.2,25 -1.7288,1.7288 -29.679,1.6827 -30.34,-0.05 z m 76.262,-83.298999 c 8.5822,-4.2767 13.521,-12.66 13.521,-22.951 0,-7.4248 -1.88,-12.066 -7.2461,-17.887 -6.5085,-7.0609 -9.3249,-7.7221 -31.497,-7.394 l -19,0.28109 -0.53434,50.5 h 19.821 c 19.239,0 19.971,-0.0748 24.936,-2.5489 z m 71.738,83.298999 c -0.26233,-0.6875 -0.3607,-37.7 -0.21862,-82.249999 l 0.25834,-80.9999998 h 31 l 0.25592,81.4369998 c 0.20266,64.488999 -0.005,81.602999 -1,82.234999 -2.1915,1.3913 -29.75,1.0074 -30.296,-0.42201 z"
     fill="#79a1c1"
     id="path6"
     style="fill:#131a43;fill-opacity:1" />
  <path
     d="m 211.47592,174.76789 c -1.1,-0.25393 -4.4496,-0.95902 -7.4436,-1.5669 -13.368,-2.7141 -30.362,-12.273 -40.251,-22.64 -16.152,-16.934 -23.221,-34.848 -23.177,-58.734999 0.0458,-24.681 7.4731,-42.717 24.653,-59.865 16.167,-16.137 38.441,-24.5679998 61.673,-23.3429998 21.719,1.145 38.149,8.1963998 53.943,23.1509998 35.593,33.7 32.887,93.946999 -5.607,124.859999 -9.0221,7.245 -15.842,10.935 -27.291,14.765 -8.2532,2.7614 -11.141,3.2218 -22,3.5078 -6.875,0.18111 -13.4,0.12153 -14.5,-0.1324 z m 21.757,-31.909 c 22.454,-4.7582 39.005,-23.663 41.251,-47.116999 2.0575,-21.487 -12.348,-44.975 -32.12,-52.373 -19.985,-7.4772 -40.532,-3.0841 -55.498,11.866 -16.464,16.446 -19.992,39.218 -9.4081,60.721999 6.1911,12.579 20.725,23.8 34.78,26.854 8.1722,1.7755 12.791,1.7859 20.995,0.0474 z m 146.51,31.5 c -13.747,-2.5069 -24.869,-8.1785 -34.382,-17.533 -5.7504,-5.6548 -7.9936,-8.8256 -11.673,-16.5 -2.5051,-5.225 -5.1196,-12.2 -5.8101,-15.5 -0.91177,-4.3581 -1.2749,-20.777 -1.3269,-59.999999 l -0.0716,-54 h 30.931 l 0.27851,48.5 c 0.15318,26.675 0.44761,51.227999 0.65429,54.560999 0.71675,11.561 7.1296,21.031 17.88,26.403 5.1665,2.5817 7.2125,3.0362 13.666,3.0355 13.406,-0.001 23.9,-6.9654 29.955,-19.879 l 2.6352,-5.62 0.30569,-53.775999 0.3057,-53.776 30.389,0.55149 0.25968,51 c 0.30593,60.080999 -0.006,63.384999 -7.3955,78.432999 -10.206,20.781 -29.626,33.366 -53.297,34.54 -4.7121,0.23359 -10.699,0.036 -13.304,-0.43905 z M 8.9829153,160.47589 c 0,-14.619 -1.3246,-11.455 13.0789997,-31.24 4.1687,-5.7259 15.273,-21.436 24.677,-34.910999 9.404,-13.475 20.489,-29.225 24.633,-35 10.141,-14.13 11.559,-16.79 9.6083,-18.023 -0.86833,-0.54893 -16.36,-0.95328 -36.863,-0.96216 l -35.3649997,-0.0153 0.7002999,-5.605 c 1.5315998,-12.258 5.2605998,-19.653 11.5509998,-22.906 3.4582,-1.7883 14.007,-2.0695998 65.229,-1.7391 l 38.750005,0.25 v 25.581 l -8.6927,12.46 c -15.996,22.928 -53.601005,76.374999 -59.024005,83.887999 -2.9487,4.0857 -5.2252,8.1357 -5.0588,9 0.26756,1.3904 4.7075,1.6016 38.539,1.8333 43.464005,0.29769 39.102005,-0.85351 37.150005,9.8045 -1.3342,7.2859 -5.3239,14.882 -9.4822,18.054 l -3.12,2.3798 H 8.9838153 Z m 457.0000047,11.455 c 0,-1.695 6.5584,-17.463 34.982,-84.104999 5.63,-13.2 13.089,-30.75 16.576,-39 3.487,-8.25 8.5544,-20.175 11.261,-26.5 l 4.9207,-11.5 h 25.487 l 5.7284,13.5 c 3.1506,7.425 9.2315,21.825 13.513,32 10.718,25.471 27.041,63.850999 31.259,73.499999 5.2782,12.073 17.272,41.694 17.272,42.655 0,0.46478 -7.1962,0.84505 -15.992,0.84505 -18.332,0 -16.274,1.1069 -21.37,-11.494 -2.2484,-5.5592 -3.9802,-8.3722 -5.6858,-9.2353 -1.6386,-0.82925 -7.6648,-1.246 -18.158,-1.2559 l -15.706,-0.0147 -4.1714,-7.1424 c -4.9094,-8.406 -9.9168,-19.179 -9.9168,-21.336 0,-1.3044 2.4927,-1.522 17.441,-1.522 9.5925,0 17.688,-0.39995 17.99,-0.88878 0.30211,-0.48882 -2.7826,-8.9263 -6.8548,-18.75 -4.0723,-9.823699 -9.4284,-22.810999 -11.902,-28.860999 -2.4736,-6.05 -5.1452,-11.132 -5.936,-11.294 -1.4456,-0.29602 -7.6396,12.887 -16.583,35.294 -2.1952,5.499999 -5.1694,12.636999 -6.6095,15.860999 -2.3931,5.3565 -8.3713,19.872 -19.621,47.639 -2.3396,5.775 -4.6849,11.062 -5.2119,11.75 -1.4701,1.918 -32.713,1.7797 -32.713,-0.14482 z m 177,-80.104999 v -81.5 l 36.75,0.0245 c 21.586,0.0143 38.607,0.4502 41.25,1.0563 8.0413,1.8438 18.705,7.7119 25.406,13.981 14.217,13.3 20.857,35.819 16.062,54.478 -3.6453,14.185 -11.245,25.618999 -21.912,32.965999 -3.056,2.1048 -5.5564,4.1914 -5.5564,4.637 0,0.4456 7.2,12.687 16,27.203 8.8,14.516 16,26.902 16,27.524 0,0.79814 -5.2244,1.1304 -17.774,1.1304 h -17.774 l -5.0429,-8.75 c -2.7736,-4.8125 -8.7894,-15.275 -13.368,-23.25 -4.5791,-7.975 -9.0062,-15.288 -9.8381,-16.25 -1.2918,-1.4947 -3.3574,-1.75 -14.157,-1.75 -8.5017,0 -13.038,0.3932 -13.845,1.2 -0.86611,0.86611 -1.2,7.8222 -1.2,25 v 23.8 h -31 V 91.826091 Z m 76.643,-1.2155 c 2.2784,-1.2185 5.7415,-4.0835 7.6957,-6.3666 11.064,-12.925 7.7185,-31.921 -7.1619,-40.669 -4.5936,-2.7003 -5.0146,-2.7548 -23.78,-3.0736 -16.682,-0.28348 -19.313,-0.11596 -20.75,1.3214 -1.4356,1.4356 -1.646,4.6802 -1.646,25.375 0,17.642 0.32065,24.053 1.25,24.993 0.94492,0.95604 6.0092,1.1879 20.75,0.95 17.879,-0.28854 19.844,-0.49883 23.643,-2.5302 z m 71.357,1.2155 v -81.5 h 31 V 173.32589 h -31 z"
     fill="#6390b5"
     id="path8"
     style="fill:#131a43;fill-opacity:1" />
  <path
     d="m 202.47592,172.35789 c -19.745,-5.2502 -36.869,-17.512 -48.384,-34.647 -8.5456,-12.716 -13.116,-28.414 -13.116,-45.051999 0,-24.521 7.3346,-42.447 24.5,-59.879 7.898,-8.0207 10.286,-9.7726 19.5,-14.308 14.133,-6.9568 23.231,-9.1466998 37.91,-9.1246998 6.3745,0.01 14.599,0.6550198 18.276,1.4343998 23.811,5.0465 45.144,21.829 55.771,43.875 6.1899,12.841 8.4008,22.177 8.4479,35.673 0.0872,24.979999 -8.5809,45.644999 -25.969,61.910999 -10.995,10.285 -22.554,16.541 -37.999,20.564 -8.5222,2.2197 -29.831,1.9759 -38.938,-0.44563 z m 33.568,-29.625 c 23.654,-6.9522 38.958,-27.149 38.92,-51.363999 -0.0217,-13.764 -4.9245,-25.623 -15.083,-36.482 -12.182,-13.022 -33.19,-18.892 -49.973,-13.962 -32.428,9.525 -48.055,44.77 -33.254,74.998999 10.223,20.878 37.57,33.223 59.391,26.809 z m 138.44,29.982 c -17.094,-4.1323 -32.613,-16.581 -40.376,-32.386 -7.0503,-14.355 -7.1886,-15.884 -6.8954,-76.227999 l 0.25877,-53.272 h 29 l 1,108.049999 3.292,6.6848 c 3.5803,7.2701 8.6982,12.35 16.132,16.014 3.6684,1.8077 6.2609,2.2527 13.076,2.2445 7.3987,-0.009 9.252,-0.38971 14.304,-2.9388 6.6859,-3.3734 11.449,-8.2462 15.411,-15.765 l 2.785,-5.2859 1,-108.999999 h 29 l 0.26508,53 c 0.30064,60.109999 0.11775,62.136999 -6.8925,76.412999 -7.9912,16.274 -23.176,28.354 -40.888,32.529 -8.0329,1.8933 -22.519,1.8666 -30.473,-0.0562 z M 9.4739152,171.07899 c -0.29395,-1.2375 -0.17315,-7.425 0.26844,-13.75 l 0.8028898,-11.5 10.541,-14.5 c 9.3446,-12.854 33.537,-47.172999 54.713,-77.611999 4.1265,-5.9317 7.0896,-11.158 6.7814,-11.961 -0.4601,-1.199 -6.3175,-1.4265 -36.722,-1.4265 H 9.6836452 l 0.6564198,-7.0628 c 0.76349,-8.2149 2.6576,-13.301 6.4338,-17.276 5.5339,-5.826 3.8511,-5.6607 57.647,-5.6607 h 49.550005 l 0.011,8.75 c 0.006,4.8125 0.26142,10.325 0.56749,12.25 0.6054,3.8076 0.66922,3.7058 -26.340005,42 -6.0128,8.525 -16.468,23.375 -23.234,32.999999 -6.7657,9.625 -14.935,21.176 -18.153,25.669 -3.218,4.493 -5.8515,8.8803 -5.8515,9.75 0,1.4144 4.0777,1.5813 38.645,1.5813 h 38.645005 l -0.60943,6.5263 c -0.66421,7.1129 -3.5186,14.601 -6.9786,18.306 -4.9156,5.2647 -3.8025,5.1674 -59.132005,5.1674 h -51.531 z m 457.2200048,1.6409 c -0.87301,-0.87301 -1.1904,-0.0919 27.994,-68.891 4.6661,-10.999999 11.756,-27.649999 15.755,-36.999999 3.9989,-9.35 10.79,-25.325 15.092,-35.5 4.3015,-10.175 8.2394,-19.062 8.7509,-19.75 0.6479,-0.87088 4.3436,-1.25 12.185,-1.25 7.8492,0 11.532,0.37826 12.17,1.25 0.96867,1.3228 2.1112,3.9816 24.387,56.75 7.7781,18.425 17.964,42.499999 22.636,53.499999 16.973,39.964 21.128,50.631 19.902,51.101 -0.65145,0.24999 -7.8833,0.32946 -16.071,0.1766 l -14.886,-0.27791 -3.7954,-9.3684 c -2.0875,-5.1526 -4.3114,-9.9901 -4.9421,-10.75 -0.89282,-1.0758 -4.8878,-1.3816 -18.046,-1.3816 h -16.9 l -3.0489,-4.75 c -2.9002,-4.5184 -11.907,-22.417 -11.907,-23.661 0,-0.32375 7.3882,-0.58863 16.418,-0.58863 17.27,0 19.582,-0.31416 19.582,-2.6606 0,-0.79563 -3.8525,-10.76 -8.5612,-22.142999 -4.7087,-11.383 -10.04,-24.296 -11.846,-28.696 -5.2902,-12.882 -5.122,-13.082 -20.613,24.5 -3.7406,9.074999 -10.909,26.399999 -15.929,38.499999 -5.0201,12.1 -10.766,26.05 -12.768,31 -2.002,4.95 -4.1223,9.3306 -4.7116,9.7347 -1.2864,0.882 -29.976,1.0273 -30.847,0.15623 z m 177.14,-0.61486 c -0.20184,-0.70183 -0.23671,-37.418 -0.0775,-81.590999 l 0.28952,-80.315 75.421,0.66387 7,2.758 c 22.795,8.9812 36.571,28.484 36.781,52.072 0.14249,15.972 -5.9955,31.452 -16.227,40.924999 -3.3173,3.0712 -7.3724,6.3762 -9.0113,7.3443 -1.6389,0.9681 -3.1685,2.2518 -3.399,2.8526 -0.23053,0.60077 6.9102,13.225 15.868,28.053 8.9582,14.828 15.961,27.309 15.563,27.736 -0.39859,0.42624 -8.2698,0.65124 -17.492,0.5 l -16.767,-0.27497 -6.1038,-10.5 c -3.3571,-5.775 -9.7372,-16.8 -14.178,-24.5 l -8.0743,-14 h -28.96 l -1,49 -14.633,0.27606 c -11.197,0.21124 -14.719,-0.0236 -15,-1 z m 75.913,-81.353999 c 9.2679,-4.6184 14.345,-13.056 14.345,-23.84 0,-10.762 -5.2941,-19.561 -14.472,-24.051 -5.1882,-2.5384 -5.5444,-2.5709 -25.208,-2.303 l -19.945,0.27179 -0.26798,24.982 c -0.14738,13.74 -0.049,25.553 0.21862,26.25 0.37033,0.96508 5.2256,1.268 20.322,1.268 19.312,0 19.971,-0.0679 25.008,-2.5778 z m 72.22,1.0778 v -81.553 l 29.5,0.55347 V 172.8293 l -29.5,0.55347 z"
     fill="#467aa9"
     id="path10"
     style="fill:#131a43;fill-opacity:1" />
  <path
     d="m 203.27592,171.84789 c -19.911,-5.5566 -37.009,-17.736 -48.208,-34.342 -11.932,-17.692 -16.185,-40.823999 -11.615,-63.174999 3.0234,-14.789 9.362,-26.925 20.509,-39.268 14.206,-15.731 35.957,-24.967 59.017,-25.062 24.393,-0.1007298 43.549,8.3347 60.795,26.771 14.219,15.2 22.467,38.974 20.845,60.081 -1.1759,15.297999 -7.6464,32.967999 -16.276,44.447999 -5.7223,7.6123 -20.38,19.947 -27.971,23.538 -14.339,6.7833 -18.711,7.7736 -35.893,8.1299 -11.792,0.2445 -17.368,-0.0501 -21.203,-1.1202 z m 31.972,-28.087 c 23.212,-6.0148 38.938,-25.03 40.467,-48.929999 0.63799,-9.9721 -0.881,-17.534 -5.2754,-26.263 -9.601,-19.07 -24.39,-28.711 -45.961,-29.961 -7.8868,-0.45697 -9.9072,-0.20587 -16.335,2.0301 -10.183,3.5424 -17.36,8.1207 -24.262,15.476 -7.0011,7.4607 -9.3675,11.804 -11.965,21.958 -3.3078,12.933 -2.0361,25.563999 3.8517,38.258999 5.0985,10.993 21.191,23.988 34.122,27.555 6.4612,1.7824 18.22,1.7243 25.357,-0.12519 z m 138.97,28.022 c -17.005,-4.5787 -31.517,-16.261 -39.067,-31.452 -6.9964,-14.077 -7.1359,-15.553 -7.1555,-75.749999 l -0.0174,-53.25 h 28 l 0.0156,50.75 c 0.0169,54.802999 0.2676,57.937999 5.3222,66.562999 3.1341,5.3479 9.2368,10.803 15.587,13.932 3.5928,1.7705 6.2938,2.2548 12.576,2.2548 6.8637,0 8.9242,-0.43799 14.507,-3.0836 8.1962,-3.8843 12.028,-7.7108 16.194,-16.172 l 3.2988,-6.6991 0.28312,-53.772999 0.28312,-53.773 h 28.027 l -0.33405,55.75 c -0.37601,62.752999 -0.23218,61.410999 -8.0521,75.132999 -11.62,20.39 -30.615,31.166 -54.707,31.036 -5.225,-0.0281 -11.867,-0.68841 -14.761,-1.4674 z M 10.447915,171.28853 c -0.35432,-0.5733 -0.32794,-6.3415 0.0586,-12.818 l 0.70284,-11.776 5.8238,-7.9318 c 3.2031,-4.3625 10.04,-14.007 15.193,-21.432 13.653,-19.670999 23.095,-33.114999 31.608,-44.999999 17.42,-24.322 20.496,-29.211 19.436,-30.893 -0.89465,-1.4188 -5.1888,-1.6378 -36.655,-1.8697 l -35.641,-0.26263 v -3.4382 c 0,-9.7243 3.7277,-18.089 9.9217,-22.263 l 3.3741,-2.2738 h 98.407005 l 0.60745,11.75 c 0.56995,11.025 0.47223,11.935 -1.5832,14.75 -1.2048,1.65 -6.4767,9.3 -11.71501,17 -9.30509,13.677 -14.947995,21.693 -31.791995,45.162 -4.5543,6.345399 -10.141,14.304999 -12.416,17.686999 -2.2744,3.3826 -6.7977,9.8415 -10.052,14.353 -3.3292,4.6156 -5.7654,8.9888 -5.5708,10 0.32463,1.6867 2.7022,1.8132 38.72,2.0591 l 38.374005,0.26202 -0.55665,6.1388 c -0.69937,7.7127 -4.9947,16.432 -9.6351,19.56 l -3.3796,2.2775 H 62.385055 c -34.507,0 -51.504,-0.34113 -51.937,-1.0424 z M 467.97792,171.0349 c 0,-1.929 6.5266,-17.793 26.003,-63.204 7.621,-17.768999 15.952,-37.382999 25.486,-59.999999 3.4776,-8.25 8.3701,-19.725 10.872,-25.5 l 4.5492,-10.5 22.801,-0.56098 5.5505,12.78 c 3.0528,7.0293 6.7803,15.93 8.2833,19.78 1.503,3.85 3.5646,8.6587 4.5812,10.686 1.0166,2.0273 4.3529,9.9023 7.4139,17.5 3.061,7.5977 8.2313,19.889 11.49,27.314 11.75,26.775999 29.97,70.628999 29.97,72.134999 0,1.4446 -28.594,1.0742 -29.717,-0.3849 -0.52883,-0.6875 -2.447,-4.9934 -4.2625,-9.5686 -1.8156,-4.5753 -3.9451,-8.9628 -4.7324,-9.75 -1.1283,-1.1283 -4.9912,-1.4314 -18.245,-1.4314 h -16.814 l -1.747,-2.6662 c -3.8407,-5.8616 -12.423,-23.622 -11.857,-24.537 0.37931,-0.61373 6.0351,-0.72194 15.239,-0.29154 15.573,0.72826 20.161,-0.009 20.105,-3.2301 -0.0169,-0.97611 -1.8505,-6.0498 -4.0746,-11.275 -2.2241,-5.2252 -6.9837,-16.699999 -10.577,-25.499999 -3.5932,-8.8 -7.2279,-17.688 -8.0771,-19.75 -1.0245,-2.4884 -2.1876,-3.75 -3.4569,-3.75 -2.7581,0 -5.4051,5.8499 -32.805,72.499999 -4.2959,10.45 -9.7767,23.725 -12.179,29.5 l -4.3687,10.5 -14.715,0.27673 c -11.821,0.2223 -14.715,0.0113 -14.715,-1.0727 z m 176.65,0.53518 c -0.70589,-1.1422 -0.72899,-146.769999 -0.0244,-153.989999 l 0.60959,-6.25 h 34.334 c 21.437,0 36.325,0.41922 39.634,1.116 13.745,2.8948 28.823,13.702 35.247,25.263 5.945,10.7 7.868,17.853 7.8291,29.121 -0.03,8.7118 -0.44531,11.118 -3.2235,18.677 -4.1728,11.353 -9.0308,18.140999 -17.579,24.561999 -3.8356,2.881 -7.1086,6.075 -7.2734,7.0977 -0.28123,1.7456 2.2453,6.2149 22.685,40.128 4.4632,7.4053 8.1148,13.818 8.1148,14.25 0,0.432 -7.3623,0.78581 -16.361,0.78581 h -16.361 l -3.311,-6.25 c -1.8211,-3.4375 -5.4028,-9.625 -7.9594,-13.75 -2.5566,-4.125 -6.5953,-11.1 -8.9748,-15.5 -2.3796,-4.4 -5.4084,-9.4625 -6.7308,-11.25 l -2.4043,-3.25 h -14.342 c -12.156,0 -14.435,0.24115 -14.949,1.5818 -0.33385,0.86998 -0.60699,12.12 -0.60699,25 l -2e-5,23.418 h -13.941 c -7.6675,0 -14.153,-0.34237 -14.411,-0.76082 z m 74.859,-79.589999 c 9.7841,-4.5562 15.449,-13.778 15.449,-25.149 0,-11.352 -5.259,-19.98 -15.197,-24.933 -5.0045,-2.4938 -5.7124,-2.5672 -24.755,-2.5672 -13.914,0 -19.952,0.34828 -20.804,1.2 -1.3007,1.3007 -1.8082,51.858 -0.53333,53.133 0.36666,0.36667 9.7042,0.66227 20.75,0.6569 18.927,-0.009 20.372,-0.14407 25.091,-2.3415 z m 73.402,15.350999 c -0.05,-35.749999 -0.0909,-66.349999 -0.0909,-67.999999 0,-1.65 0.0409,-8.625 0.0909,-15.5 l 0.0909,-12.5 h 28 V 172.33108 h -28 z"
     fill="#276db0"
     id="path12"
     style="fill:#131a43;fill-opacity:1" />
  <path
     d="m 203.27592,171.84789 c -19.911,-5.5566 -37.009,-17.736 -48.208,-34.342 -11.932,-17.692 -16.185,-40.823999 -11.615,-63.174999 3.0234,-14.789 9.362,-26.925 20.509,-39.268 14.206,-15.731 35.957,-24.967 59.017,-25.062 24.393,-0.1007298 43.549,8.3347 60.795,26.771 14.219,15.2 22.467,38.974 20.845,60.081 -0.77009,10.018999 -4.4776,23.217999 -9.298,33.103999 -3.6214,7.4266 -13.565,20.324 -16.342,21.196 -1.1796,0.37057 -1.1262,0.0494 0.25,-1.5036 1.9125,-2.1582 2.3377,-5.2439 0.75,-5.4424 -1.9912,-0.2489 -2.5212,-0.41911 -3.7663,-1.2094 -0.69647,-0.44208 -0.9954,-1.2421 -0.66428,-1.7779 0.33113,-0.53577 -0.58444,-2.5297 -2.0346,-4.4309 -2.1087,-2.7646 -3.3272,-3.4568 -6.0857,-3.4568 -2.0364,0 -3.3467,-0.46079 -3.1991,-1.125 0.5932,-2.6694 -2.4778,-1.7062 -6.5614,2.0579 -3.6635,3.3769 -4.3248,4.5326 -3.901,6.8167 0.28073,1.5127 0.79638,2.9754 1.1459,3.2504 2.2467,1.7678 4.8707,6.3972 4.429,7.8138 -0.40881,1.3111 -0.16517,1.2424 1.0954,-0.30895 1.722,-2.1193 1.8804,-2.025 4.6108,2.7451 1.2536,2.19 5.1612,2.2502 8.7165,0.13429 1.5925,-0.94774 0.85443,0.0683 -1.7852,2.4577 -5.0312,4.5542 -13.361,8.9764 -24.23,12.863 -6.4531,2.3078 -9.0687,2.6374 -23.27,2.9318 -11.792,0.2445 -17.368,-0.0501 -21.203,-1.1202 z m 25.928,-0.89128 c 1.5028,-1.1414 1.5456,-1.5566 0.33176,-3.2166 -0.76657,-1.0484 -1.7315,-1.5683 -2.1444,-1.1555 -0.41283,0.41284 -1.5372,0.0388 -2.4986,-0.83127 -1.3682,-1.2382 -2.1962,-1.342 -3.8106,-0.47798 -1.1345,0.60715 -3.1969,0.81923 -4.5832,0.47129 -2.0762,-0.52108 -2.5205,-0.27348 -2.5205,1.4044 0,3.5144 2.6964,5.1826 8.3214,5.148 2.8482,-0.0175 5.9551,-0.62155 6.9041,-1.3424 z m 22.242,-3.55 c 5.4343,-2.1822 5.791,-2.9802 2.8794,-6.4414 -1.4502,-1.724 -3.8361,-3.6394 -5.302,-4.2564 -1.4659,-0.61709 -3.9258,-2.2902 -5.4665,-3.718 -1.5407,-1.4278 -3.7618,-2.9009 -4.9358,-3.2735 -1.1741,-0.37263 -2.6269,-1.3506 -3.2284,-2.1733 -0.8068,-1.1034 -2.054,-1.3157 -4.7538,-0.80917 -4.104,0.76992 -4.1023,0.76724 -2.5046,3.8596 2.0479,3.964 2.315,4.414 4.2264,7.1218 1.8084,2.5619 1.8121,2.7429 0.095,4.6403 -1.021,1.1282 -1.2918,1.9744 -0.6318,1.9744 0.63525,0 1.155,1.0666 1.155,2.3702 0,2.3101 0.19665,2.3642 7.75,2.1337 4.2625,-0.13007 9.0852,-0.77269 10.717,-1.428 z m -46.8,-2.9368 c 1.309,-1.4515 3.0288,-3.8238 3.8217,-5.2719 0.7929,-1.4481 2.5742,-2.9171 3.9584,-3.2645 2.2416,-0.56259 5.5531,-4.9859 5.5531,-7.4173 0,-0.50268 -1.6875,-1.563 -3.75,-2.3564 -3.628,-1.3954 -3.4572,-1.4291 5.25,-1.0342 30.093,1.365 54.317,-20.3 56.236,-50.294999 0.63799,-9.9721 -0.881,-17.534 -5.2754,-26.263 -9.601,-19.07 -24.39,-28.711 -45.961,-29.961 -7.8868,-0.45697 -9.9072,-0.20587 -16.335,2.0301 -10.183,3.5424 -17.36,8.1207 -24.262,15.476 -7.0011,7.4607 -9.3675,11.804 -11.965,21.958 -3.3078,12.933 -2.0361,25.563999 3.8517,38.258999 3.8717,8.3478 14.752,18.689 25.076,23.832 7.6915,3.832 8.0842,4.1679 4.8724,4.1679 -1.9213,0 -4.0314,0.64825 -4.6889,1.4406 -0.6575,0.79235 -1.7733,1.2188 -2.4795,0.94785 -0.74573,-0.28616 -1.8014,0.7566 -2.5184,2.4875 -0.80621,1.9464 -2.5206,3.4948 -4.9421,4.4637 -3.4907,1.3967 -6.1093,4.8764 -6.1093,8.1183 0,1.169 4.9342,4.066 10,5.8711 2.7373,0.9754 7.2547,-0.51526 9.6668,-3.1899 z m 8.3332,-0.63905 c 0,-0.825 -0.64844,-1.5 -1.441,-1.5 -1.6706,0 -2.7984,1.4273 -1.8652,2.3605 1.1952,1.1952 3.3062,0.64571 3.3062,-0.86052 z m -47.921,-22.25 c 0.0472,-1.0454 0.28201,-1.2467 0.58333,-0.5 0.27741,0.6875 1.19,1.25 2.028,1.25 0.93656,0 1.3041,-0.5721 0.95391,-1.4848 -0.33014,-0.86032 0.21777,-1.9062 1.3028,-2.4869 1.2297,-0.65813 1.6918,-1.6932 1.3461,-3.0152 -0.29547,-1.1299 -0.0365,-2.0131 0.5902,-2.0131 0.61415,0 1.1166,-1.0769 1.1166,-2.393 0,-2.901 2.3839,-4.0543 4.1018,-1.9844 1.1053,1.3318 1.3526,1.3168 2.163,-0.13134 0.6207,-1.1091 0.44325,-2.1749 -0.55166,-3.3132 -0.80669,-0.92296 -2.3968,-3.8156 -3.5337,-6.4281 -1.1951,-2.7464 -2.7234,-4.75 -3.6232,-4.75 -0.85593,0 -1.5562,0.39752 -1.5562,0.88337 0,0.48585 -0.85225,1.1062 -1.8939,1.3786 -1.1645,0.30454 -2.1752,1.7936 -2.6243,3.8666 -0.99528,4.5937 -3.9446,8.5197 -6.9707,9.2792 -3.4687,0.8706 -3.2666,4.1708 0.57543,9.3951 3.2155,4.3724 5.8569,5.451 5.9924,2.447 z m 133.31,-23.077 c 2.3923,-7.4423 2.9902,-13.613 1.4422,-14.882 -0.73406,-0.60186 -3.6503,-1.3081 -6.4806,-1.5694 -2.8303,-0.2613 -5.5303,-0.69803 -6,-0.97054 -0.46974,-0.2725 -1.6242,0.25579 -2.5655,1.174 -1.5563,1.5181 -1.5742,1.9341 -0.19694,4.5887 1.22,2.3516 1.2804,3.3567 0.31074,5.1686 -0.94867,1.7726 -0.93396,2.5745 0.0694,3.7834 0.94414,1.1376 0.98512,1.8812 0.15855,2.8771 -0.86566,1.0431 -0.54746,1.6015 1.4246,2.5 1.3966,0.63632 3.138,1.157 3.8697,1.157 0.73177,0 1.8953,0.68055 2.5856,1.5123 1.7763,2.1403 3.5406,0.38998 5.3823,-5.3393 z m -148,-5.6064 c 0.3359,-1.3383 1.4721,-2.7067 2.5248,-3.0409 1.0527,-0.3342 2.3517,-1.8628 2.8865,-3.3969 0.69979,-2.0074 2.5454,-3.5342 6.5836,-5.4462 5.8613,-2.775199 6.2235,-3.425999 5.6649,-10.179999 -0.44561,-5.3882 -4.196,-9.7517 -11.646,-13.55 -1.9132,-0.9754 -4.3952,-2.9388 -5.5156,-4.3631 -4.3201,-5.4921 -6.3719,-2.1854 -6.2906,10.138 0.0373,5.6479 0.46237,7.6855 1.9451,9.324 1.4048,1.5523 1.5153,2.0125 0.42548,1.7726 -1.9395,-0.42688 -2.5202,10.869999 -0.87011,16.925999 1.2811,4.7013 3.3485,5.5763 4.2921,1.8166 z m 134.7,-14.659999 c 1.6382,-1.6382 2.0013,-2.997 1.6701,-6.25 -0.23275,-2.2862 -0.77287,-4.9442 -1.2003,-5.9067 -0.52932,-1.192 -0.34138,-1.75 0.58943,-1.75 0.75159,0 2.7122,-1.639 4.357,-3.6422 1.6448,-2.0032 4.228,-4.9628 5.7405,-6.5769 1.6058,-1.7136 2.7409,-4.047 2.728,-5.6078 -0.0271,-3.3007 -3.5001,-11.173 -4.9292,-11.173 -0.57689,0 -1.0489,-0.675 -1.0489,-1.5 0,-2.5306 -3.2972,-1.6467 -7.5,2.0104 -3.5781,3.1135 -3.8154,3.5919 -2.25,4.5348 2.3752,1.4307 2.2156,3.9548 -0.25,3.9548 -1.1,0 -2,-0.45 -2,-1 0,-1.981 -2.0701,-0.94594 -3,1.5 -0.52277,1.375 -1.4116,2.5 -1.9752,2.5 -1.1524,0 -1.4007,3.2907 -0.32914,4.3623 0.87153,0.87153 1.0725,2.2545 1.6586,11.415 0.31764,4.9647 1.0194,7.9777 2.1489,9.2257 1.0582,1.1693 1.4345,2.6178 1.0197,3.9249 -0.88401,2.785299 1.7762,2.772699 4.5705,-0.0216 z m -108.49,-35.498 c 3.4132,-5.1422 3.5726,-5.71 2.2824,-8.132 -1.0876,-2.0419 -1.1172,-2.6944 -0.13696,-3.0235 0.6875,-0.23083 1.25,-1.0572 1.25,-1.8364 0,-1.0324 -1.3495,-1.4167 -4.975,-1.4167 h -4.975 l 0.60359,-3.018 c 0.49985,-2.4993 0.32607,-2.9115 -1.0111,-2.3984 -1.1274,0.43264 -1.9132,-0.16549 -2.6038,-1.982 -1.4259,-3.7505 -3.3419,-3.233 -7.9544,2.1483 -4.5372,5.2935 -5.0452,8.2129 -2.0843,11.977 1.1,1.3984 2,3.5766 2,4.8403 0,1.4296 0.76575,2.5408 2.0266,2.941 1.1146,0.35377 2.6937,1.6613 3.5091,2.9057 1.027,1.5673 2.545,2.3024 4.9409,2.3925 3.1375,0.11795 3.799,-0.38302 7.1279,-5.3982 z m 85.645,-14.801 c 0.9625,-0.73064 1.75,-1.6594 1.75,-2.0638 0,-0.4044 0.94261,-2.0592 2.0947,-3.6771 1.4339,-2.0137 2.6566,-2.7633 3.876,-2.3763 1.646,0.5224 2.1876,-0.24713 3.0013,-4.2636 0.081,-0.39989 1.0888,-1.0754 2.2396,-1.5011 1.9474,-0.72038 1.7931,-1.0321 -2.227,-4.5 -7.1941,-6.206 -8.6525,-6.4217 -13.358,-1.976 -1.8919,1.7875 -5.5069,5.1257 -8.0333,7.4183 -5.4861,4.9783 -5.3128,6.0395 1.767,10.822 5.7181,3.8628 6.3819,4.0209 8.8894,2.1174 z m -39.809,-13.315 c 0.27792,-0.72424 -0.90231,-1.991 -2.7254,-2.9253 -1.7686,-0.90633 -4.7132,-3.3849 -6.5435,-5.5079 -1.8304,-2.123 -3.8866,-3.86 -4.5695,-3.86 -0.68288,0 -1.8853,-1.4625 -2.6721,-3.25 -1.364,-3.099 -1.6725,-3.2438 -6.6405,-3.1154 -8.4658,0.21872 -15.993,6.1047 -10.097,7.8949 1.2688,0.3852 3.2069,1.4896 4.3069,2.4542 1.1,0.9646 3.2216,2.0425 4.7147,2.3952 1.8867,0.44579 2.5377,1.1028 2.1343,2.154 -0.35897,0.93548 0.75752,2.7744 2.9264,4.8199 l 3.5068,3.3073 7.5843,-1.5448 c 4.1714,-0.84964 7.8049,-2.1196 8.0745,-2.8222 z m 15.559,-13.608 c 0,-1.5107 -5.3854,-3.949 -7.7335,-3.5014 -1.9876,0.37886 -3.0898,4.8163 -1.1963,4.8163 0.66512,0 1.8336,-0.7875 2.5965,-1.75 1.3053,-1.6466 1.481,-1.6177 2.9745,0.4884 1.5856,2.236 3.3587,2.2079 3.3587,-0.0533 z m 136.24,150.769999 c -17.005,-4.5787 -31.517,-16.261 -39.067,-31.452 -6.9964,-14.077 -7.1359,-15.553 -7.1555,-75.749999 l -0.0174,-53.25 h 28 l 0.0156,50.75 c 0.0169,54.802999 0.2676,57.937999 5.3222,66.562999 3.1341,5.3479 9.2368,10.803 15.587,13.932 3.5928,1.7705 6.2938,2.2548 12.576,2.2548 6.8637,0 8.9242,-0.43799 14.507,-3.0836 8.1962,-3.8843 12.028,-7.7108 16.194,-16.172 l 3.2988,-6.6991 0.28312,-53.772999 0.28312,-53.773 h 28.027 l -0.33405,55.75 c -0.37601,62.752999 -0.23218,61.410999 -8.0521,75.132999 -11.62,20.39 -30.615,31.166 -54.707,31.036 -5.225,-0.0281 -11.867,-0.68841 -14.761,-1.4674 z m 29.327,-1.5298 c 10.223,-1.857 17.099,-6.4193 14.939,-9.9133 -0.34296,-0.55492 -1.3845,-1.0231 -2.3146,-1.0404 -0.93004,-0.0173 -2.4666,-1.0987 -3.4146,-2.4031 -1.4788,-2.0348 -1.5143,-2.452 -0.25,-2.9372 2.59,-0.99387 1.5814,-2.1203 -2.1367,-2.3862 -4.4612,-0.31905 -5.3897,-0.86623 -5.3897,-3.1761 0,-1.2305 -0.99874,-2.0157 -3.0977,-2.4355 -4.3389,-0.86778 -7.9023,0.21272 -7.9023,2.3962 0,0.99539 -0.27847,2.5355 -0.61881,3.4224 -0.52736,1.3743 -0.0367,1.5195 3.3201,0.98275 3.4692,-0.55475 4.138,-0.32607 5.608,1.9175 0.918,1.401 1.7865,4.0331 1.9299,5.849 0.2428,3.0735 0.0666,3.2812 -2.549,3.0045 -1.5454,-0.16347 -4.5354,-1.1966 -6.6444,-2.2959 -2.9281,-1.5262 -3.7138,-2.4606 -3.3236,-3.9528 0.41042,-1.5694 -0.002,-1.9541 -2.0938,-1.9541 -2.2576,0 -2.6885,-0.52345 -3.2327,-3.9268 -0.67198,-4.2023 -2.2928,-5.3585 -9.9253,-7.0799 -3.058,-0.68969 -3.7756,-0.54475 -4.1396,0.83618 -0.2422,0.91877 -2.2157,2.4246 -4.3856,3.3462 -3.083,1.3095 -3.9452,2.2179 -3.9452,4.1564 0,1.9278 -0.41532,2.372 -1.8637,1.9933 -1.9644,-0.5137 -6.1363,3.7622 -6.1363,6.2892 0,0.7397 2.3625,2.7114 5.25,4.3815 7.2314,4.1827 12.58,3.9133 14.771,-0.74374 2.2331,-4.7479 5.3371,-6.6747 8.212,-5.0976 1.2471,0.6841 3.1674,1.1413 4.2674,1.0161 2.5817,-0.29398 7.6175,4.3594 6.8584,6.3375 -0.66948,1.7446 0.20297,4.4916 1.4266,4.4916 0.46624,0 3.5179,-0.485 6.7814,-1.0778 z m 31.303,-17.466 c 1.6628,-1.3992 3.3174,-3.4706 3.6768,-4.6031 0.3594,-1.1325 1.7489,-3.6732 3.0876,-5.6459 1.4382,-2.1192 2.1595,-4.225 1.763,-5.1469 -0.7556,-1.7567 -0.88217,-4.8174 -0.29196,-7.0602 0.21711,-0.825 -0.16776,-1.3875 -0.85526,-1.25 -1.3706,0.27411 -1.5478,-1.0364 -0.61238,-4.528 0.60275,-2.2498 1.2384,-2.306 5.9796,-0.52871 2.8863,1.082 3.4771,-9.0127 3.2934,-56.267999 l -0.184,-47.313 -2.6133,-2.4339 c -3.8284,-3.5657 -6.4785,-4.6783 -11.143,-4.6783 -8.4387,0 -12.713,6.2356 -10.725,15.645 0.56414,2.6701 0.96817,5.7548 0.89785,6.8548 -0.0703,1.1 -0.33085,5.15 -0.57893,9 -0.78382,12.164 -0.886,59.908999 -0.13329,62.280999 0.39663,1.2496 1.2495,2.2069 1.8954,2.1272 2.931,-0.36172 4.6742,0.2069 4.6742,1.5247 0,1.5066 -2.8806,2.8351 -5.0996,2.3519 -0.81049,-0.17647 -2.1599,2.1839 -3.5534,6.2155 -2.8823,8.3388 -2.868,9.445 0.15304,11.821 1.5957,1.2552 2.5,2.9722 2.5,4.7469 v 2.7804 l -2.25,-2.1002 c -3.6967,-3.4506 -6.9409,-3.7386 -9.6483,-0.85668 -1.8837,2.0051 -2.2198,3.1651 -1.7078,5.8942 0.53602,2.8572 1.5047,3.8515 6.0893,6.2501 2.9985,1.5688 5.6815,3.4508 5.9622,4.1822 0.44608,1.1625 3.7785,3.0349 5.7279,3.2184 0.37031,0.0349 2.0338,-1.0814 3.6966,-2.4805 z m 1.8135,-26.106 c -1.0653,-1.0653 -0.80245,-4.35 0.34805,-4.35 1.4785,0 2.4094,2.9592 1.2847,4.0839 -0.5222,0.5222 -1.257,0.64195 -1.6328,0.26612 z m -3.5035,-9.5172 c 0.37253,-2.5323 2.8201,-3.7613 2.8201,-1.4161 0,0.87083 0.525,1.5833 1.1667,1.5833 1.8192,0 0.0214,1.3483 -2.2626,1.6969 -1.6012,0.24437 -1.975,-0.15967 -1.7242,-1.8641 z m -1.1799,-66.391999 c 0,-0.85746 0.45734,-1.2764 1.0163,-0.9309 0.55896,0.3455 0.75742,1.047 0.44098,1.559 -0.85723,1.387 -1.4573,1.1284 -1.4573,-0.62812 z m 8.1579,-9.441 c 0,-1.375 0.22698,-1.9375 0.50439,-1.25 0.27741,0.6875 0.27741,1.8125 0,2.5 -0.27741,0.6875 -0.50439,0.125 -0.50439,-1.25 z m -7.9079,-0.72024 c -1.5013,-0.53617 -1.6842,-3.2798 -0.21862,-3.2798 1.0315,0 2.5471,2.8024 1.8422,3.4062 -0.20545,0.17599 -0.93604,0.11908 -1.6235,-0.12646 z m 1.3054,-10.19 c -0.30943,-0.50067 0.002,-2.6382 0.69098,-4.75 1.0614,-3.251 1.7365,-3.8866 4.4036,-4.1456 2.9873,-0.2901 3.15,-0.12656 3.15,3.1667 0,2.8315 -0.44306,3.5838 -2.4,4.075 -1.32,0.3313 -2.4,1.0438 -2.4,1.5833 0,1.2358 -2.6904,1.291 -3.4446,0.0707 z m -89.39,110.969999 c 1.4941,-1.392 1.9062,-2.639 1.4599,-4.4173 -0.51252,-2.042 0.0627,-3.02 3.2703,-5.5605 2.1407,-1.6955 4.3596,-3.0827 4.9309,-3.0827 1.5073,0 2.6879,-4.3285 1.3062,-4.7891 -0.62299,-0.20766 -1.1327,-0.81662 -1.1327,-1.3532 0,-0.53658 0.36858,-0.74789 0.81906,-0.46948 1.3688,0.84596 0.0613,-5.2426 -1.3833,-6.4415 -1.0488,-0.87043 -2.0755,-0.26993 -4.6412,2.7146 -3.1572,3.6725 -4.3289,4.8165 -11.477,11.206 l -3.1827,2.8447 1.5112,4.3863 c 2.5278,7.3372 4.6463,8.5711 8.5196,4.9626 z m -333.500005,30.273 c -0.9674098,-0.9674 -0.7892298,-11.592 0.22115,-13.186 0.55435,-0.87482 1.107,0.98036 1.5644,5.2511 l 0.70721,6.6038 42.53,-0.0249 c 23.644,-0.0138 43.287,-0.42976 44.234,-0.93665 1.039305,-0.55622 3.420405,-0.52609 6.105595,0.0773 2.7447,0.61669 5.16781,0.6393 6.43621,0.0601 1.1188,-0.51096 3.2728,-1.4259 4.7866,-2.0331 4.36,-1.7491 6.9666,-6.7766 6.2891,-12.13 -0.94408,-7.4598 -2.7354,-8.4601 -15.83901,-8.8451 -10.176995,-0.29902 -11.416995,-0.14219 -13.037995,1.6488 -1.7279,1.9094 -1.7157,2.0322 0.34565,3.476 1.2872,0.90156 1.7206,1.754 1.0901,2.1437 -0.57574,0.35583 -1.8025,-0.23563 -2.7261,-1.3143 -1.4082,-1.6446 -1.8969,-1.7438 -3.0266,-0.61398 -0.74102,0.74103 -1.3473,1.7937 -1.3473,2.3393 0,1.7931 -5.9875,2.4667 -7.8172,0.8794 -0.92556,-0.80295 -2.9121,-1.7518 -4.4145,-2.1087 -1.5024,-0.3569 -4.2618,-1.9923 -6.132,-3.6343 -3.0071,-2.6402 -4.1368,-2.9873 -9.7683,-3.0009 -3.5024,-0.008 -7.043,-0.45159 -7.868,-0.98475 -0.98307,-0.63531 11.557,-0.97465 36.389,-0.98469 l 37.889005,-0.0153 -0.55774,6.1509 c -0.70049,7.7251 -4.9924,16.442 -9.6362,19.572 l -3.3796,2.2775 H 62.491085 c -28.152,0 -51.485,-0.3 -51.852,-0.66667 z m 457.330005,-0.62933 c 0,-1.929 6.5266,-17.793 26.003,-63.204 7.621,-17.768999 15.952,-37.382999 25.486,-59.999999 3.4776,-8.25 8.3701,-19.725 10.872,-25.5 l 4.5492,-10.5 22.801,-0.56098 5.5505,12.78 c 3.0528,7.0293 6.7803,15.93 8.2833,19.78 1.503,3.85 3.5646,8.6587 4.5812,10.686 1.0166,2.0273 4.3529,9.9023 7.4139,17.5 3.061,7.5977 8.2313,19.889 11.49,27.314 11.75,26.775999 29.97,70.628999 29.97,72.134999 0,1.4446 -28.594,1.0742 -29.717,-0.3849 -0.52883,-0.6875 -2.447,-4.9934 -4.2625,-9.5686 -1.8156,-4.5753 -3.9451,-8.9628 -4.7324,-9.75 -1.1283,-1.1283 -4.9912,-1.4314 -18.245,-1.4314 h -16.814 l -1.747,-2.6662 c -3.8892,-5.9357 -12.42,-23.628 -11.842,-24.561 0.398,-0.64396 5.3541,-0.74622 13.923,-0.28725 16.431,0.88004 21.449,0.21827 21.405,-2.8232 -0.0169,-1.1892 -1.8505,-6.4371 -4.0746,-11.662 -2.2241,-5.2249 -6.8865,-16.474999 -10.361,-24.999999 -10.349,-25.392 -10.531,-25.738 -12.865,-24.296 -1.8967,1.1722 -8.1728,15.589 -31.69,72.795999 -4.2959,10.45 -9.7767,23.725 -12.179,29.5 l -4.3687,10.5 -14.715,0.27673 c -11.821,0.2223 -14.715,0.0113 -14.715,-1.0727 z m 152.38,-2.7599 c 1.4681,-1.3356 -0.23876,-5.9441 -2.2016,-5.9441 -1.9839,0 -7.7709,3.9345 -8.0897,5.5 -0.45027,2.2116 7.95,2.5741 10.291,0.44411 z m -147.38,-0.52744 c 0,-1.7659 -2.1528,-1.4584 -2.7708,0.39583 -0.21771,0.65313 0.31666,1.1875 1.1875,1.1875 0.87083,0 1.5833,-0.7125 1.5833,-1.5833 z m 27.734,-7.9944 c 3.2066,-5.631 2.9718,-9.4473 -0.73355,-11.922 -2.1129,-1.4113 -2.9951,-2.8094 -2.9971,-4.75 -0.002,-1.5125 -0.19108,-2.75 -0.42109,-2.75 -0.23002,0 -1.1271,-0.27203 -1.9936,-0.60452 -1.0446,-0.40084 -1.9222,0.18876 -2.6048,1.75 -0.98286,2.248 -1.0049,2.2301 -0.48739,-0.39548 0.56759,-2.8796 -0.86297,-3.8422 -1.8577,-1.25 -0.59841,1.5594 -4.6384,2.1347 -4.6384,0.66052 0,-0.46172 1.1742,-1.3745 2.6092,-2.0283 2.0862,-0.95056 2.4677,-1.6341 1.903,-3.4105 -0.38844,-1.2219 -0.75902,-3.0145 -0.82351,-3.9836 -0.24736,-3.7169 -2.3497,-1.0706 -6.6161,8.3276 -3.3916,7.4713 -2.8818,9.8801 2.9293,13.841 2.7489,1.8736 4.9981,3.9785 4.9981,4.6775 0,1.5589 6.1157,6.5138 7.5,6.0764 0.55,-0.17376 2.0051,-2.0809 3.2336,-4.2382 z m -16.958,-10.98 c -0.71681,-0.71681 0.24024,-4.4421 1.1412,-4.4421 1.7537,0 3.0098,2.3838 1.9371,3.6762 -1.1749,1.4157 -2.1788,1.6655 -3.0783,0.76589 z m 5.2246,-3.4421 c 0,-0.55 0.45,-1 1,-1 0.55,0 1,0.45 1,1 0,0.55 -0.45,1 -1,1 -0.55,0 -1,-0.45 -1,-1 z m 108.82,14.695 c 0.18924,-0.99263 2.6516,-4.1426 5.472,-7 2.8204,-2.8574 5.6116,-6.0952 6.2028,-7.1952 1.6596,-3.0881 0.14854,-9.1115 -3.3907,-13.516 -1.7611,-2.1915 -2.7308,-3.9845 -2.1549,-3.9845 1.4764,0 1.3032,-2.5426 -0.26167,-3.8413 -0.97746,-0.81122 -1.7345,-0.58906 -2.9902,0.87755 -0.92479,1.0801 -1.2688,1.9638 -0.76445,1.9638 1.1652,0 3.69,5.023 4.5942,9.1401 0.73536,3.3481 0.94186,3.2922 -4.2808,1.157 -0.81103,-0.33159 -1.25,0.40444 -1.25,2.0959 0,1.6234 -0.55292,2.607 -1.4656,2.607 -1.0046,0 -1.6752,1.5808 -2.1322,5.0254 -0.57231,4.3143 -0.93095,4.9415 -2.5344,4.4326 -1.4722,-0.46727 -1.8678,-0.0807 -1.8678,1.8254 0,1.33 0.50253,3.8597 1.1167,5.6216 0.84894,2.4353 1.6258,3.1305 3.2398,2.8992 1.1677,-0.16734 2.2779,-1.1164 2.4671,-2.109 z m -20.824,-13.088 c 0,-0.21616 -0.69837,-0.661 -1.5519,-0.98855 -0.88992,-0.34149 -1.2913,-0.17385 -0.94098,0.39301 0.58726,0.95021 2.4929,1.4054 2.4929,0.59554 z m -25.519,-7.5855 c 0.98477,-1.0882 1.842,-2.9634 1.905,-4.1672 0.0782,-1.494 1.0668,-2.5046 3.1145,-3.1838 1.65,-0.54728 3.45,-1.5886 4,-2.3142 0.55,-0.7256 2.0009,-1.4659 3.2242,-1.6453 5.2541,-0.77065 3.3786,-3.6679 -2.3924,-3.6958 -4.4339,-0.0214 -6.3113,0.87442 -5.6182,2.6808 0.48824,1.2723 -0.0707,1.4253 -3.3132,0.90663 -5.0315,-0.80487 -6.8286,0.42543 -6.69,4.58 0.12996,3.8938 1.8664,8.8173 3.1097,8.8173 0.47837,0 1.6755,-0.89031 2.6603,-1.9785 z m 34.27,-0.77153 c 0.26131,-0.78483 -0.54516,-1.25 -2.1671,-1.25 -2.5238,0 -3.2883,0.96173 -1.8821,2.3679 1.0288,1.0288 3.5679,0.32779 4.0492,-1.1179 z m -69.943,-15.75 c 3.5129,-7.2069 4.6257,-13.896 2.5925,-15.583 -0.76978,-0.63886 -1.3996,-1.5576 -1.3996,-2.0417 0,-0.48408 -1.8,-2.5064 -4,-4.4939 -2.2,-1.987599 -4.0141,-4.123899 -4.0314,-4.747399 -0.0317,-1.1442 -4.8427,-5.1279 -5.4127,-4.4819 -1.4516,1.6452 -8.5559,17.978999 -8.5559,19.670999 0,2.9365 3.3528,2.8852 4.7795,-0.073 0.97065,-2.0126 1.0923,-1.8079 1.1528,1.941 0.0372,2.305 -0.38232,4.4691 -0.93232,4.809 -1.8263,1.1287 -1.0366,2.2427 2.0236,2.8547 1.663,0.3326 3.3177,1.4014 3.6771,2.375 0.3594,0.9736 0.92044,1.9953 1.2468,2.2703 0.32632,0.275 1.1702,1.8104 1.8753,3.4119 1.1004,2.4996 1.4787,2.712 2.6709,1.5 0.7639,-0.77657 2.705,-4.1119 4.3135,-7.4119 z m 79.693,6.5 c 0.33992,-0.55 0.14148,-1 -0.44098,-1 -0.58246,0 -1.059,0.45 -1.059,1 0,0.55 0.19844,1 0.44098,1 0.24254,0 0.7191,-0.45 1.059,-1 z m -15.057,-15.223 c 0.85618,-1.2224 1.5567,-2.8156 1.5567,-3.5405 0,-2.123 4.2315,-7.237 5.9881,-7.237 2.2223,0 4.0152,-1.997 3.9953,-4.449999 -0.0244,-3.0124 -4.2568,-14.1 -6.5598,-17.184 -1.7423,-2.3336 -2.2686,-2.5189 -4.2075,-1.4812 -1.2189,0.65232 -2.2161,1.8002 -2.2161,2.5508 0,1.2519 -5.6867,7.5945 -8.3642,9.3291 -0.62467,0.40467 -1.9034,1.6492 -2.8415,2.7656 -1.6176,1.9249 -1.5785,2.3805 0.75508,8.809499 3.8086,10.493 5.1648,12.661 7.9197,12.661 1.3647,0 3.0956,-0.96796 3.9743,-2.2225 z m -47.296,-32.315999 c 1.0548,-2.729 2.0156,-6.8735 2.1352,-9.2101 0.1196,-2.3366 0.58707,-4.2491 1.0389,-4.25 0.45178,-8.9e-4 0.22678,-0.661 -0.5,-1.4669 -1.5481,-1.7166 -2.352,-2.739 -6.1369,-7.8048 -4.6523,-6.2266 -7.5201,-8.9496 -8.6744,-8.2362 -1.4637,0.90462 -7.0101,12.74 -7.0101,14.959 0,0.96758 1.125,2.6442 2.5,3.7257 1.375,1.0815 2.5,2.4609 2.5,3.0652 0,0.6043 0.78145,1.9622 1.7366,3.0175 0.9551,1.0554 1.7866,2.4408 1.8477,3.0787 0.0611,0.63794 0.17968,1.9032 0.26346,2.8117 0.15797,1.7132 5.9963,6.0175 7.5171,5.542 0.47565,-0.14871 1.7278,-2.5032 2.7826,-5.2321 z m 26.507,-7.2493 c 0.2571,-0.98315 2.24,-3.2966 4.4064,-5.141 2.1664,-1.8444 3.9389,-3.81 3.9389,-4.3681 0,-0.5581 1.125,-2.4895 2.5,-4.2923 4.6963,-6.1572 1.8896,-17.482 -4.7566,-19.192 -2.5149,-0.6472 -3.3145,-1.4393 -3.5598,-3.5269 -0.36259,-3.085 -0.75822,-3.2604 -2.784,-1.2347 -1.8235,1.8235 -4.64,0.87627 -3.9423,-1.3259 0.2843,-0.89737 -0.15707,-2.9297 -0.98081,-4.5163 -1.0893,-2.0981 -1.2032,-3.2396 -0.4177,-4.1861 0.76859,-0.9261 0.77165,-1.8775 0.0106,-3.2995 -1.4949,-2.7933 -1.4116,-2.9574 1.6806,-3.3132 2.1167,-0.24355 2.6743,-0.77699 2.4214,-2.3164 -0.18075,-1.1 -0.96267,-2.6534 -1.7376,-3.4519 -1.2283,-1.2658 -1.6669,-1.175 -3.4214,0.70819 -1.1068,1.188 -2.0124,2.6034 -2.0124,3.1452 0,0.5418 -0.99223,1.6801 -2.205,2.5295 -2.0774,1.455 -2.2661,1.3948 -3.2614,-1.0402 -0.69288,-1.6951 -2.4291,-3.057 -5.045,-3.9573 -5.014,-1.7256 -6.109,-0.74409 -9.8478,8.827 -3.1368,8.0303 -3.3842,11.732 -0.82863,12.401 0.99671,0.26065 2.2342,1.8976 2.75,3.6377 0.73273,2.472 1.7359,3.3866 4.5875,4.1825 5.1243,1.4302 7.9619,4.2261 7.2337,7.1273 -0.48054,1.9146 0.0106,2.6118 2.7662,3.9267 3.4079,1.6262 6.112,6.0515 7.311,11.965 1.4837,7.317 4.1388,10.748 5.1941,6.7124 z m -19.946,-25.587 c -0.55383,-1.6636 -3.8451,-2.0232 -4.7731,-0.52157 -0.44211,0.71536 -0.61928,1.5993 -0.39369,1.9643 0.69155,1.119 5.5665,-0.24225 5.1668,-1.4427 z m 104.94,122.609999 c -0.70589,-1.1422 -0.72899,-146.769999 -0.0244,-153.989999 l 0.60959,-6.25 h 34.334 c 21.437,0 36.325,0.41922 39.634,1.116 8.1499,1.7164 19.491,7.7042 25.992,13.723 5.277,4.8856 13.757,17.544 12.557,18.745 -0.26421,0.2642 -1.0321,-0.85153 -1.7064,-2.4794 -1.97,-4.7559 -4.396,-6.4025 -8.2261,-5.5831 -3.9759,0.8506 -5.8172,2.1916 -5.8172,4.2365 0,0.83209 -1.0125,2.5518 -2.25,3.8215 -5.1502,5.2844 -5.75,6.218 -5.75,8.9504 0,2.757 -0.10605,2.6947 -2.8948,-1.7028 -1.5922,-2.5106 -4.4289,-5.7348 -6.3038,-7.1648 -6.834,-5.2125 -9.2354,-5.662 -30.248,-5.662 h -19.511 l 1.1391,-2.5 c 1.1474,-2.5181 1.8626,-2.8784 5.068,-2.5523 0.9625,0.0979 1.75,-0.30027 1.75,-0.88484 0,-0.58457 -1.125,-1.0629 -2.5,-1.0629 -1.375,0 -2.5,-0.47656 -2.5,-1.059 0,-0.58244 0.402,-0.81057 0.89333,-0.50691 0.49133,0.30366 1.1778,-0.58123 1.5254,-1.9664 0.79666,-3.1741 4.0405,-6.4752 6.3312,-6.443 2.0185,0.0284 5.6975,6.5808 4.2109,7.4996 -3.2822,2.0285 1.2619,5.5213 7.6525,5.882 3.8577,0.21777 4.3848,-0.003 4.3713,-1.8293 -0.0202,-2.7389 -0.91871,-3.869 -4.2347,-5.3258 -1.9534,-0.85824 -2.75,-1.9386 -2.75,-3.7296 0,-1.3868 -0.35428,-2.5214 -0.78729,-2.5214 -0.43301,0 -0.89817,-1.4552 -1.0337,-3.2337 -0.13553,-1.7785 -0.67118,-3.6585 -1.1904,-4.1776 -0.51922,-0.5191 -4.307,-1.0953 -8.4175,-1.2803 -7.1951,-0.32386 -7.5906,-0.22191 -10.617,2.7363 -2.5116,2.4552 -3.7273,2.9604 -6.0488,2.514 -1.598,-0.30728 -4.2555,-0.81944 -5.9055,-1.1382 -1.65,-0.3187 -3,-0.96612 -3,-1.4387 0,-1.3057 -8.9855,-2.3963 -10.15,-1.2319 -0.66602,0.66602 0.19321,1.2233 2.5752,1.6701 4.3296,0.81224 4.6559,2.9271 0.8247,5.3447 -3.0436,1.9206 -3.7075,4.4348 -2.1858,8.2782 0.73987,1.8686 0.61993,3.4688 -0.45235,6.0352 -1.6268,3.8936 -2.0544,25.922 -0.5031,25.922 0.49018,0 0.89124,-0.45 0.89124,-1 0,-0.55 0.8449,-1 1.8776,-1 2.386,0 4.2226,-2.183 3.8843,-4.6167 -0.14401,-1.0358 0.007,-1.8833 0.33448,-1.8833 1.922,0 3.9748,-3.0807 3.4489,-5.1758 -0.44668,-1.7797 -0.16668,-2.3242 1.1952,-2.3242 0.97818,0 2.3406,-0.9 3.0275,-2 0.78774,-1.2614 2.332,-2 4.1815,-2 1.6129,0 3.2966,-0.5625 3.7415,-1.25 0.4449,-0.6875 1.034,10.9 1.309,25.75 l 0.5,27 20.266,0.27076 c 18.832,0.25159 20.619,0.11922 25.242,-1.8696 5.6402,-2.4264 11.299,-8.1639 14.07,-14.264 l 1.8786,-4.137 0.022,4.0308 c 0.0194,3.5517 0.37852,4.1654 3.022,5.1631 1.8969,0.716 3,1.8376 3,3.0503 0,1.0548 1.0753,2.4934 2.3895,3.1967 1.3142,0.70336 2.8796,2.3544 3.4786,3.669 1.2569,2.7587 3.7342,3.0575 6.9094,0.83344 3.2187,-2.2545 2.7419,-0.52955 -1.5581,5.6359 -2.0873,2.992899 -7.1261,7.959299 -11.25,11.087999 -4.6605,3.5363 -7.3581,6.2661 -7.1735,7.259 0.27959,1.5036 3.812,7.5524 23.089,39.537 4.4632,7.4053 8.1148,13.818 8.1148,14.25 0,0.432 -7.3623,0.78581 -16.361,0.78581 h -16.361 l -3.311,-6.25 c -1.8211,-3.4375 -5.4028,-9.625 -7.9594,-13.75 -2.5566,-4.125 -6.5953,-11.1 -8.9748,-15.5 -2.3796,-4.4 -5.4174,-9.4744 -6.7509,-11.276 l -2.4244,-3.2763 -29.358,0.55265 -0.53494,49.5 h -13.924 c -7.6579,0 -14.135,-0.34237 -14.394,-0.76082 z m 23.069,-1.8608 c 2.6036,-0.69798 3.6075,-3.2829 3.5251,-9.0764 -0.1127,-7.923 -2.684,-8.0686 -4.0664,-0.23027 -0.72454,4.1081 -0.9898,4.4128 -3.6688,4.2139 -1.5883,-0.11789 -3.4961,0.29054 -4.2397,0.90762 -1.0015,0.8312 -1.6519,0.82196 -2.5095,-0.0357 -0.63669,-0.63664 -1.4652,-1.1576 -1.841,-1.1576 -1.197,0 -1.6722,4.9111 -0.52124,5.3862 1.6462,0.67945 10.778,0.67411 13.322,-0.008 z m 94.283,-0.41355 c 0,-1.6852 -2.9924,-5.7479 -4.7228,-6.412 -0.99127,-0.38039 -2.6853,0.42205 -4.44,2.1031 -4.4137,4.2286 -3.7535,5.344 3.1628,5.344 3.4693,0 6,-0.43663 6,-1.0352 z m -27.323,-8.2148 c 1.1139,-1.2375 2.3032,-3.0375 2.6429,-4 0.3397,-0.9625 1.4318,-1.75 2.4268,-1.75 0.99503,0 2.4883,-0.7875 3.3183,-1.75 0.83003,-0.9625 2.5623,-2.4432 3.8495,-3.2904 l 2.3403,-1.5405 -2.1777,-3.9595 c -6.0574,-11.014 -8.3816,-12.24 -12.577,-6.6375 -1.1,1.4691 -4.1068,4.7665 -6.6817,7.3276 -5.3222,5.2935 -5.3715,6.4487 -0.57841,13.551 3.2973,4.8857 4.5686,5.2361 7.4368,2.0497 z m -84.586,-8.9763 c -1.5102,-2.4182 -1.3632,-3.7737 0.40925,-3.7737 0.825,0 1.5,0.675 1.5,1.5 0,0.825 0.43588,1.5 0.96862,1.5 1.1745,0 0.14132,-2.9961 -1.6627,-4.8214 -0.71827,-0.72678 -1.306,-1.7393 -1.306,-2.25 0,-1.421 2.1431,-1.1042 3.3898,0.50108 0.61063,0.78631 2.6852,1.5738 4.6102,1.75 3.1191,0.28549 3.5327,0.039 3.8006,-2.2652 0.16725,-1.4388 -0.38715,-3.1563 -1.25,-3.8724 -0.85281,-0.70777 -1.5506,-1.8149 -1.5506,-2.4604 0,-0.80996 -1.4716,-1.0044 -4.75,-0.62756 -4.403,0.50609 -4.7714,0.76512 -5.043,3.546 -0.16114,1.65 -0.58729,3.675 -0.947,4.5 -0.69402,1.5918 -1.2543,5.6498 -1.4298,10.356 -0.0586,1.5706 0.51818,3.2431 1.2817,3.7168 1.8996,1.1785 3.5263,-4.821 1.9789,-7.2987 z m 5.4092,-20.138 c 0,-0.8995 -0.31813,-1.523 -0.70695,-1.3854 -0.38883,0.1375 -1.3331,-0.60625 -2.0983,-1.6528 -0.76657,-1.0483 -1.9085,-1.5831 -2.543,-1.191 -1.4034,0.86732 -1.4347,1.7193 -0.18414,5.0084 0.80811,2.1255 1.3437,2.4057 3.25,1.7005 1.2553,-0.46438 2.2824,-1.5803 2.2824,-2.4798 z m 7.5,-0.0764 c 0,-0.79254 -0.45,-1.7191 -1,-2.059 -0.55,-0.3399 -1,0.30852 -1,1.441 0,1.13248 0.45,2.059 1,2.059 0.55,0 1,-0.64844 1,-1.441 z m 52.777,-1.1157 c 2.9604,-2.0736 2.8382,-8.4433 -0.16197,-8.4433 -0.64378,0 -2.1722,-0.70163 -3.3965,-1.5592 -1.6563,-1.1601 -1.9947,-1.9919 -1.3224,-3.25 0.78782,-1.4741 0.26896,-1.7104 -4.0474,-1.8437 -3.3611,-0.1038 -4.8199,0.21735 -4.5425,1 0.22473,0.6341 1.1435,1.0911 2.0418,1.0156 1.2068,-0.1015 1.4882,0.44 1.0781,2.0742 -0.34004,1.3548 0.0509,2.7145 1.0092,3.5098 0.86036,0.71403 1.5643,1.9181 1.5643,2.6758 0,0.75766 0.37777,1.3776 0.83948,1.3776 0.46172,0 1.3521,1.125 1.9786,2.5 1.331,2.9212 1.9637,3.0416 4.9594,0.9433 z m -44.19,-5.1933 1.7066,-5.75 4.5323,0.36496 c 4.9899,0.4018 7.1736,-1.2788 7.1736,-5.5209 0,-2.3612 2.5456,-4.3209 5.6843,-4.3758 2.5339,-0.0444 6.2269,-3.0441 4.5288,-3.6786 -0.70782,-0.26449 -2.6077,-1.5923 -4.222,-2.9506 -4.0351,-3.3953 -6.5387,-2.0428 -6.1513,3.3231 0.24052,3.3316 -0.11377,4.0687 -2.6856,5.5879 -1.6295,0.9625 -3.8834,1.75 -5.0087,1.75 -1.1253,0 -2.4059,0.59644 -2.8457,1.3254 -0.43983,0.72898 -1.4888,1.5771 -2.3311,1.8847 -0.84227,0.30763 -2.1344,2.9119 -2.8713,5.7873 -0.93147,3.6344 -1.6031,4.8126 -2.2033,3.8653 -0.62972,-0.99394 -0.86753,-0.73784 -0.8787,0.94628 -0.008,1.27 0.4036,2.0501 0.91559,1.7337 0.512,-0.31644 1.2136,-0.11799 1.559,0.44098 1.0399,1.6825 1.3206,1.2535 3.0976,-4.7337 z m -6.6028,2.5 c -0.012,-1.7567 -0.21673,-1.9316 -0.93402,-0.79775 -0.50529,0.79874 -0.69684,1.8112 -0.42567,2.25 0.86737,1.4034 1.3754,0.86078 1.3597,-1.4522 z m -0.30158,-6.9375 c -0.31922,-0.79773 -0.55618,-0.56078 -0.60416,0.60417 -0.0434,1.0542 0.19293,1.6448 0.52522,1.3125 0.33229,-0.3323 0.36781,-1.1948 0.0789,-1.9167 z m 55.317,-0.31253 c 0,-0.825 -0.64844,-1.5 -1.441,-1.5 -1.6706,0 -2.7984,1.4273 -1.8652,2.3605 1.1952,1.1952 3.3062,0.64571 3.3062,-0.86052 z m -66.797,-6.5063 c 1.5022,-2.6399 2.2437,-2.9937 6.2748,-2.9937 4.0534,0 4.6883,-0.30785 5.6044,-2.7174 0.56823,-1.4946 0.9615,-4.082 0.87393,-5.75 -0.25088,-4.778799 -0.10457,-5.144199 2.5434,-6.350699 3.2112,-1.4631 3.2158,-3.182 0.008,-3.182 -1.3868,0 -3.0312,-0.8642 -3.7088,-1.9492 -0.90393,-1.4474 -1.5496,-1.6733 -2.5085,-0.87755 -0.71016,0.58938 -1.2912,1.6434 -1.2912,2.3422 0,0.69881 -0.73132,1.5512 -1.6252,1.8942 -1.2846,0.49294 -1.4917,1.4584 -0.98818,4.607 0.64005,4.002599 0.19784,4.528599 -2.8304,3.366599 -1.1327,-0.43468 -1.3092,-0.976 -0.59759,-1.8334 0.7187,-0.86598 0.29375,-1.839099 -1.4745,-3.376599 -2.7642,-2.4038 -3.291,-5.1732 -0.98372,-5.1732 1.6817,0 1.7699,-0.75165 0.86408,-7.3604 -0.49792,-3.6327 -1.0405,-4.6396 -2.5,-4.6396 -2.0317,0 -2.5,1.4889 -0.79894,2.5403 0.6931,0.42836 0.43577,1.3538 -0.73672,2.6493 -1.7383,1.9208 -1.7339,2.0408 0.12598,3.4007 1.0603,0.77532 1.4679,1.4097 0.90571,1.4097 -1.6864,0 -3.6196,4.6072 -2.8933,6.8954 0.37246,1.1735 1.0585,1.898 1.5246,1.61 1.2608,-0.77922 4.0086,2.350699 4.0086,4.566099 0,1.0607 -0.5625,1.8161 -1.25,1.6786 -0.76547,-0.15309 -1.2794,0.91288 -1.3259,2.75 -0.0418,1.65 -0.4274,3.7875 -0.85699,4.75 -0.83612,1.8733 -0.13681,4.7541 1.1515,4.7437 0.42976,-0.003 1.548,-1.3535 2.4849,-3 z m 82.616,-2.1557 c 2.5741,-1.7391 4.8183,-3.2648 4.9872,-3.3903 0.16885,-0.12556 -0.0847,-1.7401 -0.56336,-3.588 -0.68812,-2.6562 -1.4853,-3.4657 -3.807,-3.8661 -2.063,-0.35578 -3.0299,-1.1598 -3.25,-2.702699 -0.17234,-1.208 -1.2722,-2.5006 -2.4442,-2.8726 -1.172,-0.37196 -2.8367,-1.548 -3.6994,-2.6134 -1.5511,-1.9155 -1.6198,-1.9152 -6.1614,0.0316 -4.7078,2.018 -6.9143,4.8301 -4.513,5.7515 0.82041,0.31483 1.15,1.479599 0.85507,3.022299 -0.37095,1.9405 0.003,2.6364 1.65,3.067 1.2736,0.33304 2.4306,1.7174 2.8781,3.4434 0.48117,1.8562 1.9975,3.5553 4.2482,4.7604 4.7138,2.5237 4.5082,2.5456 9.8198,-1.0431 z m -64.82,-20.837999 c 0,-0.55 -0.45,-1 -1,-1 -0.55,0 -1,0.45 -1,1 0,0.55 0.45,1 1,1 0.55,0 1,-0.45 1,-1 z m -6.2613,-16.538 c 0.22627,-1.6896 -0.15166,-2.4622 -1.2045,-2.4622 -1.6096,0 -1.9614,1.7232 -0.91067,4.4613 0.78551,2.047 1.6875,1.1945 2.1152,-1.9992 z m -0.73869,-9.9622 c 0,-2.793 -1.4588,-3.3527 -2.393,-0.91821 -0.96023,2.5023 -0.72095,3.4182 0.89301,3.4182 0.93333,0 1.5,-0.94444 1.5,-2.5 z m 64.574,-26.168 c -0.89327,-2.3278 1.5718,-6.3323 3.8979,-6.3323 3.067,0 6.5284,-3.6007 6.5263,-6.789 -10e-4,-2.1186 -0.97128,-3.3235 -4.4384,-5.5139 -2.4402,-1.5416 -6.0573,-3.0659 -8.0381,-3.3873 -3.3057,-0.53644 -3.9752,-0.19434 -8.1529,4.1658 -2.5034,2.6126 -4.9887,6.0043 -5.523,7.5371 -0.53433,1.5328 -1.8432,3.0148 -2.9086,3.2934 -1.1111,0.29057 -1.9371,1.3695 -1.9371,2.5303 0,1.5173 1.3139,2.531 5.25,4.0507 6.1544,2.3761 16.177,2.6672 15.324,0.44515 z m 64.335,68.667999 c -0.05,-35.749999 -0.0909,-66.349999 -0.0909,-67.999999 0,-1.65 0.0409,-8.625 0.0909,-15.5 l 0.0909,-12.5 h 28 V 172.32854 h -28 z m 25.907,59.75 c 0.25401,-2.2076 -0.0874,-2.75 -1.731,-2.75 -1.3499,0 -2.2611,-0.8517 -2.6748,-2.5 -0.67923,-2.7063 -1.167,-2.9402 -3.3064,-1.5856 -0.79095,0.50083 -1.1208,1.6002 -0.76128,2.5371 0.34895,0.90933 -0.0371,2.6782 -0.85779,3.9308 -1.9752,3.0146 -0.98404,3.7703 4.4776,3.4139 4.1201,-0.26888 4.5663,-0.54895 4.8536,-3.0461 z m -21.485,-21.5 c 0.35547,-1.8674 0.20387,-3.25 -0.35636,-3.25 -0.53625,0 -0.975,1.65 -0.975,3.6667 0,4.2858 0.46388,4.1406 1.3314,-0.41667 z m 8.6686,1.857 c 0,-1.4766 2.7079,-2.0504 5.6927,-1.2063 3.8148,1.0788 7.0041,-1.7302 5.3896,-4.7469 -1.4984,-2.7998 -1.3537,-7.0252 0.29715,-8.676 1.1212,-1.1212 1.3482,-7.2388 1.2125,-32.679 -0.14904,-27.948999 -0.36407,-31.759999 -2.009,-35.601999 l -1.8421,-4.3026 -2.4231,2.2764 c -2.0485,1.9244 -2.5651,2.0485 -3.3419,0.80256 -0.69577,-1.116 -1.3362,-1.2136 -2.6378,-0.40236 -2.4107,1.5026 -2.6792,2.9445 -0.88263,4.7411 0.84955,0.84955 1.5446,2.3069 1.5446,3.2385 0,1.3923 0.26707,1.4722 1.5,0.44898 1.2532,-1.0401 1.5,-0.89568 1.5,0.87756 0,1.1673 -0.3421,2.1224 -0.76022,2.1224 -1.8602,0 -6.2398,5.2925 -6.2398,7.5405 0,1.4068 -0.58199,2.4595 -1.3597,2.4595 -1.6374,0 -1.3975,-7.3827 0.30664,-9.4361 1.3411,-1.616 0.33741,-4.5639 -1.5539,-4.5639 -1.6828,0 -1.8715,-2.6738 -0.22729,-3.2219 0.86097,-0.28699 0.88767,-1.1862 0.10213,-3.4396 -1.4006,-4.0179 -0.28907,-5.5572 3.8458,-5.3256 6.0225,0.33734 6.8864,0.0765 6.8864,-2.0797 0,-1.1367 1.1784,-3.6117 2.6187,-5.5 2.3623,-3.0972 2.3923,-3.9087 0.13131,-3.5517 -0.4125,0.0651 -0.75,-1.2175 -0.75,-2.8502 0,-2.1335 0.39379,-2.8175 1.3998,-2.4314 1.9263,0.73919 3.6047,-4.9124 3.148,-10.6 -0.19875,-2.475 -0.40332,-5.1975 -0.4546,-6.05 -0.0654,-1.087 -1.1387,-1.55 -3.5932,-1.55 -1.925,0 -3.5,0.39441 -3.5,0.87647 0,0.48206 -1.9125,0.73603 -4.25,0.56437 l -4.25,-0.31209 -0.32451,3.9729 c -0.17849,2.1851 -0.8365,4.5898 -1.4623,5.3438 -0.8689,1.047 -0.77229,1.6407 0.40887,2.5127 2.8653,2.1153 3.084,6.0995 0.46966,8.5556 -1.4927,1.4024 -2.1811,2.9406 -1.862,4.1609 0.27846,1.0648 -0.0712,2.6318 -0.77691,3.4821 -0.83615,1.0075 -1.4458,6.0482 -1.7498,14.469 -0.39725,11.001 -0.21404,13.308 1.2321,15.515 1.4115,2.1542 1.4783,2.8582 0.39495,4.1635 -1.232,1.4844 -1.5967,5.9674 -1.9357,23.794999 -0.11706,6.1557 0.60999,27.395 0.97083,28.361 0.0742,0.19844 1.0586,-0.70156 2.1877,-2 l 2.0528,-2.3608 -0.62024,2.25 c -0.49834,1.8078 -0.21392,2.25 1.4471,2.25 1.7836,0 2.0674,0.61777 2.0674,4.5 0,2.475 0.45,4.5 1,4.5 0.55,0 1,-0.40186 1,-0.89301 z m -3.4626,-14.4 c 0.34869,-1.3893 0.14708,-2.7839 -0.45638,-3.1569 -1.5453,-0.95506 -1.3354,-2.5501 0.33564,-2.5501 0.77916,0 1.6268,-0.5625 1.8836,-1.25 0.96903,-2.5943 1.9416,2.4157 1.0634,5.4778 -1.0995,3.8338 -3.7676,5.2303 -2.8262,1.4791 z m 0.46259,-11.207 c 0,-0.825 -0.45,-1.5 -1,-1.5 -1.677,0 -1.1128,-3.7427 0.66722,-4.4258 2.3654,-0.90769 3.1968,0.42151 2.612,4.1758 -0.50449,3.2387 -2.2792,4.6014 -2.2792,1.75 z m -0.5,-12.5 c -0.33992,-0.55 0.11008,-1 1,-1 0.88992,0 1.3399,0.45 1,1 -0.3399,0.55 -0.78992,1 -1,1 -0.21008,0 -0.66008,-0.45 -1,-1 z m -3.9257,-7 c 1.5231,-9.678899 5.1875,-11.912999 6.7317,-4.104299 0.96595,4.884399 -0.11754,6.439999 -4.0211,5.773299 -1.2183,-0.20808 -2.4505,0.11877 -2.7382,0.72633 -0.28772,0.60756 -0.27528,-0.47034 0.0276,-2.3953 z m 13.426,-32.440999 c 0,-0.85746 0.45,-1.559 1,-1.559 0.55,0 1,0.42344 1,0.94098 0,0.51754 -0.45,1.2191 -1,1.559 -0.55,0.3399 -1,-0.0835 -1,-0.94098 z m -4,-18 c 0,-1.3425 0.4176,-2.6991 0.928,-3.0145 1.128,-0.69711 2.4512,3.0328 1.5775,4.4466 -1.1332,1.8335 -2.5055,1.0491 -2.5055,-1.432 z m 4.5978,-14.295 c -0.9987,-0.99869 -0.6686,-4.1026 0.51403,-4.8335 1.1461,-0.70835 2.8458,1.192 2.8729,3.2121 0.0176,1.3127 -2.4935,2.5148 -3.3869,1.6214 z m -12.411,-19.706 c 1.4889,-2.9956 1.5086,-3.461 0.16822,-3.9754 -3.972,-1.5242 -6.7807,1.0717 -5.6866,5.2558 0.84052,3.2142 3.603,2.5732 5.5184,-1.2804 z M 99.211735,165.15654 c -1.7875,-1.1051 -3.25,-2.4178 -3.25,-2.9172 0,-0.4994 -0.87344,-0.90795 -1.941,-0.90795 -2.4756,0 -3.7337,-1.965 -1.96,-3.0612 0.83247,-0.5145 1.9765,-0.27537 2.9658,0.6199 1.4209,1.2859 1.8218,1.2241 3.4047,-0.52507 0.98681,-1.0904 2.612405,-2.2422 3.612305,-2.5596 2.7987,-0.88827 7.57899,2.1146 8.7602,5.5029 1.0119,2.9029 0.9004,3.1039 -2.51371,4.5304 -4.43539,1.8532 -5.05219,1.8069 -9.078395,-0.68216 z m -58.25,-7.8251 c 0,-0.55 -1.2893,-1 -2.8651,-1 -1.5758,0 -4.0093,-0.9 -5.4077,-2 -1.3984,-1.1 -3.6933,-2 -5.0997,-2 -2.8339,0 -4.9819,-2.9127 -4.012,-5.4403 0.33456,-0.87185 0.0529,-2.2544 -0.62603,-3.0724 -1.5952,-1.9221 -4.8882,-1.9147 -5.6278,0.0127 -0.31659,0.825 -1.1703,1.5 -1.8972,1.5 -0.7269,0 -2.0287,0.70714 -2.893,1.5714 -3.2877998,3.2878 -1.2922,-0.37525 4.3973,-8.0714 3.2528,-4.4 10.13,-14.075 15.284,-21.5 13.653,-19.670999 23.095,-33.114999 31.608,-44.999999 14.781,-20.638 20.14,-28.863 20.14,-30.916 0,-2.0735 -0.17821,-2.0836 -36.5,-2.0836 h -36.5 v -3.4508 c 0,-9.7371 3.7246,-18.099 9.9217,-22.275 l 3.3741,-2.2738 h 98.407005 l 0.60745,11.75 c 0.56995,11.025 0.47223,11.935 -1.5832,14.75 -1.2048,1.65 -6.4767,9.3 -11.71501,17 -9.25579,13.605 -14.799995,21.482 -31.601995,44.901 -4.4494,6.201799 -11.297,15.960999 -15.218,21.686999 -3.9202,5.7262 -8.2683,11.761 -9.6624,13.411 l -2.5348,3 1.0308,-2.8898 c 0.83678,-2.346 0.69651,-3.2592 -0.7453,-4.8524 -3.112,-3.4388 -6.5979,-4.7012 -10.532,-3.814 l -3.6036,0.81275 0.17724,-4.0913 c 0.32018,-7.3904 -4.2545,-5.5766 -9.7996,3.8854 -1.3164,2.2462 -2.7222,5.4037 -3.1241,7.0166 -0.67337,2.7023 -0.59393,2.8199 1.0113,1.497 1.4232,-1.1728 1.8908,-1.1952 2.5541,-0.12188 0.4754,0.76921 1.3765,0.99264 2.1738,0.53899 1.0104,-0.57488 1.0809,-0.46894 0.27312,0.41057 -0.77427,0.84304 -0.78424,2.1581 -0.0345,4.5534 0.88954,2.842 1.6348,3.4608 4.7728,3.9626 2.8019,0.44804 4.5977,1.6674 7.2845,4.9463 4.0799,4.979 4.334,6.1643 1.6316,7.6106 -2.4189,1.2945 -3.0658,1.302 -3.0658,0.0352 z m 27.067,-45.472 c 4.3211,-5.7232 6.9167,-12.842999 4.3188,-11.846 -1.812,0.69533 -2.9157,-2.338499 -1.48,-4.068299 1.1075,-1.3345 0.45301,-5.0115 -0.77859,-4.3742 -5.4937,2.8429 -6.3782,3.0582 -8.9171,2.171 -2.0902,-0.73043 -2.7824,-1.6997 -3.0276,-4.2396 -0.38752,-4.014 -1.8821,-3.7389 -4.9231,0.90585 -1.2325,1.8826 -3.139,4.5479 -4.2366,5.9229 -1.0976,1.375 -2.0016,3.0566 -2.009,3.736799 -0.0162,1.4946 10.133,11.871 11.252,11.504 0.43442,-0.1426 1.0722,0.5324 1.4173,1.5 0.83687,2.3466 2.3668,4.2593 3.407,4.2593 0.46484,0 2.7043,-2.4624 4.9766,-5.472 z m 22.201,-31.516999 c 3.3454,-4.798 3.746,-5.9686 3.1829,-9.3011 -0.35424,-2.0967 -1.7256,-4.8938 -3.0476,-6.2157 -2.926,-2.926 -3.0934,-5.5012 -0.40347,-6.2046 2.3306,-0.60947 2.6975,-2.2898 0.5,-2.2898 -0.825,0 -1.5,0.42416 -1.5,0.94258 0,0.51842 -1.0125,0.7221 -2.25,0.45262 -8.2237,-1.7908 -8.784,-1.7368 -11.782,1.1359 -1.6126,1.545 -3.6507,4.6908 -4.529,6.9906 l -1.5969,4.1815 3.0621,3.3526 c 1.6842,1.8439 3.7946,4.9482 4.6897,6.8984 3.6634,7.9811 8.1366,7.9997 13.675,0.0569 z m 21.572005,-30.936 c 2.284,-2.7087 4.6294,-6.1786 5.212,-7.711 1.2291,-3.2327 0.44796,-7.5097 -1.3301,-7.283 -2.6891,0.34295 -3.879,-0.22861 -7.74241,-3.7189 -2.82149,-2.5491 -3.85459,-4.1795 -3.45199,-5.448 0.42006,-1.3235 -0.31304,-2.2918 -2.7263,-3.6009 -1.815505,-0.98487 -3.975905,-1.7958 -4.800905,-1.802 -0.825,-0.006 -1.6322,-0.93561 -1.7939,-2.0653 -0.24436,-1.7079 -1.4689,-2.2555 -7.2686,-3.25 -8.698,-1.4916 -21.408,-1.5498 -24.097,-0.11054 -2.0193,1.0807 -2.0183,1.096 0.21279,3.471 1.2326,1.312 3.8624,2.9083 5.844,3.5473 1.9816,0.639 4.3725,1.9639 5.313,2.9444 0.9405,0.9805 2.5569,2.3832 3.592,3.1172 1.0351,0.734 2.5434,3.3307 3.3518,5.7702 1.1957,3.6082 2.3354,4.9139 6.11,7 5.5707,3.0787 9.1091,7.3142 8.2835,9.9155 -0.50152,1.5802 0.20374,2.0131 4.681105,2.8733 2.8994,0.55707 5.53869,1.072 5.86509,1.1442 0.32641,0.0722 2.4622,-2.0848 4.74621,-4.7935 z m -95.137005,-12.278 c 1.5384,-0.66137 2.9418,-1.2936 3.1187,-1.4049 0.8516,-0.5361 -3.4743,-4.3926 -4.9273,-4.3926 -1.6125,0 -3.2631,4.5943 -2.2434,6.2443 0.60902,0.98542 0.75905,0.96887 4.052,-0.44678 z m 44.297,-0.21573 c 0,-0.23002 0.27329,-1.1304 0.60731,-2.0008 0.43794,-1.1412 -0.46848,-2.0705 -3.25,-3.3318 -2.1215,-0.96203 -5.5298,-3.4366 -7.574,-5.4992 -2.1216,-2.1407 -4.6966,-3.7535 -6,-3.7582 -1.3585,-0.005 -4.4764,-2.0627 -7.6976,-5.0805 -5.0015,-4.6855 -5.6876,-5.0212 -9,-4.4023 -4.805,0.89777 -6.0857,2.1375 -6.0857,5.8909 0,4.1322 2.3696,7.3914 5.6601,7.7847 2.9831,0.3566 5.6857,3.7648 3.5899,4.5273 -1.489,0.54173 -1.656,2.9192 -0.26536,3.7786 2.168,1.3399 10.042,2.296 19.765,2.3999 5.6375,0.0603 10.25,-0.0786 10.25,-0.30864 z m 60.793005,-18.062 c -0.25567,-4.3404 -0.6274,-5.0975 -2.8918,-5.8897 -2.7141,-0.94958 -8.3563,-0.26182 -10.86201,1.324 -1.2552,0.79449 -1.2108,1.1998 0.31634,2.8873 0.97711,1.0797 1.69341,2.5697 1.5918,3.311 -0.1016,0.7413 -0.12461,2.023 -0.051,2.848 0.11893,1.3333 0.24151,1.3333 1.10321,0 0.82843,-1.2819 0.9716,-1.2456 0.98469,0.25 0.0111,1.2665 0.82786,1.75 2.9563,1.75 1.6175,0 3.2612,0.51817 3.6526,1.1515 1.4584,2.3597 3.5013,-2.513 3.1998,-7.6321 z m 635.24,69.981 c 0,-0.55 0.43621,-1.675 0.96937,-2.5 0.53316,-0.825 0.96937,-1.05 0.96937,-0.5 0,0.55 -0.43621,1.675 -0.96937,2.5 -0.53316,0.825 -0.96937,1.05 -0.96937,0.5 z m 2.0398,-7.3602 c -0.0547,-2.6095 -1.0759,-4.3514 -4.5705,-7.7966 -2.475,-2.44 -4.5213,-4.7529 -4.5473,-5.1398 -0.026,-0.38689 -0.2372,-2.8409 -0.46925,-5.4534 -0.31303,-3.5243 -0.0744,-4.75 0.9249,-4.75 0.74074,0 1.9208,-0.69162 2.6223,-1.5369 0.70155,-0.84531 2.2192,-1.4078 3.3724,-1.25 1.9107,0.26144 2.0784,-0.15716 1.8881,-4.7131 l -0.20885,-5 1.4255,3.1612 c 3.579,7.937 4.0282,23.829 0.91405,32.339 l -1.2809,3.5 -0.0705,-3.3602 z m -5.0705,-17.14 c -1.9388,-1.2529 -3,-1.2529 -3,0 0,0.55 1.0125,0.99311 2.25,0.98469 1.8194,-0.0124 1.963,-0.20082 0.75,-0.98469 z m -19.102,1.5 c -0.23756,-4.4 -0.34137,-8.1579 -0.23069,-8.3509 0.11068,-0.193 0.72429,1.5915 1.3636,3.9656 0.78637,2.9203 0.86099,5.6215 0.2307,8.3509 -0.88224,3.8205 -0.95454,3.6102 -1.3636,-3.9656 z m -83.26,-10 c -0.31658,-0.825 -0.13972,-1.5 0.39301,-1.5 0.53274,0 0.96862,0.675 0.96862,1.5 0,0.825 -0.17686,1.5 -0.39301,1.5 -0.21616,0 -0.65203,-0.675 -0.96862,-1.5 z m 5.3616,-36.5 c 0,-0.55 0.45,-1 1,-1 0.55,0 1,0.45 1,1 0,0.55 -0.45,1 -1,1 -0.55,0 -1,-0.45 -1,-1 z"
     fill="#276bac"
     id="path14"
     style="fill:#131a43;fill-opacity:1;stroke:none;stroke-opacity:1" />
</svg>
