<?xml version="1.0" encoding="UTF-8" standalone="no"?>
<!-- Created with Inkscape (http://www.inkscape.org/) -->

<svg
   version="1.1"
   id="svg2"
   width="690.5"
   height="141.58644"
   viewBox="0 0 690.5 141.58644"
   sodipodi:docname="ZOUARI-logo-line.svg"
   inkscape:version="1.1.1 (3bf5ae0d25, 2021-09-20)"
   xmlns:inkscape="http://www.inkscape.org/namespaces/inkscape"
   xmlns:sodipodi="http://sodipodi.sourceforge.net/DTD/sodipodi-0.dtd"
   xmlns="http://www.w3.org/2000/svg"
   xmlns:svg="http://www.w3.org/2000/svg">
  <defs
     id="defs6" />
  <sodipodi:namedview
     id="namedview4"
     pagecolor="#505050"
     bordercolor="#eeeeee"
     borderopacity="1"
     inkscape:pageshadow="0"
     inkscape:pageopacity="0"
     inkscape:pagecheckerboard="0"
     showgrid="false"
     inkscape:zoom="0.88940775"
     inkscape:cx="178.20848"
     inkscape:cy="196.76015"
     inkscape:window-width="1920"
     inkscape:window-height="1031"
     inkscape:window-x="0"
     inkscape:window-y="28"
     inkscape:window-maximized="1"
     inkscape:current-layer="g8"
     fit-margin-top="20"
     fit-margin-left="20"
     fit-margin-right="20"
     fit-margin-bottom="20" />
  <g
     inkscape:groupmode="layer"
     inkscape:label="Image"
     id="g8"
     transform="translate(-166,-447.71879)">
    <path
       style="fill:none;stroke:#131a43"
       d="m 283,468 c -6.94,10.203 -14.525,19.968 -21.71,30 -2.952,4.122 -6.411,9.112 -9.38,11.775 -6.766,6.069 -8.478,3.273 -16.91,9.225 2.472,2.933 5.558,4.097 2.326,11 -1.314,2.806 -5.776,8.767 -8.199,12 -6.598,8.8 -14.093,19.171 -20.127,27 m 273,-91.561 c 6.147,-0.958 13.28,0.256 19,2.16 20.634,6.867 27.833,33.625 19.56,52.401 -1.503,3.413 -3.166,6.157 -5.745,8.96 -5.857,6.364 -13.646,10.353 -21.815,11.714 -6.395,1.066 -13.216,0.392 -19,-1.878 -4.613,-1.811 -9.244,-4.258 -12.91,-7.889 -3.072,-3.044 -5.577,-6.184 -7.525,-9.907 -7.057,-13.487 -3.999,-33.198 5.619,-43.996 3.784,-4.248 7.686,-7.059 12.816,-9.077 3.896,-1.533 6.348,-1.919 10,-2.488 M 367,478 c 10.883,0 27.793,-0.021 38,0 4.55,0.009 8.885,-0.226 9.498,4.059 0.461,3.221 -0.685,6.245 -2.622,9.941 -5.067,9.668 -16.474,21.062 -23.452,30 -4.242,5.434 -10.873,12.243 -13.456,18 -0.931,2.076 -2.576,6.644 -2.04,8.852 1.09,4.483 4.761,3.146 10.072,3.148 12.341,0.006 28.31,0 41,0 m 322,-1 c 0,-5.395 -0.006,-12.895 0,-18 0.004,-3.283 0.151,-5.38 0.151,-9 0,-4.561 -0.151,-7.46 -0.151,-12 0,-6.945 -0.003,-16.054 0,-23 10e-4,-2.649 -0.415,-5.519 0.603,-7.852 1.975,-4.522 7.256,-3.148 12.397,-3.148 13.086,0 31.435,-1.995 37.861,11.004 3.038,6.146 3.11,15.864 0.737,21.996 -1.579,4.081 -5.437,7.978 -9.596,10.049 -2.961,1.474 -5.106,1.494 -5.733,5.009 -0.446,2.502 0.988,6.475 2.274,8.942 2.847,5.459 7.59,11.969 11.457,17 M 556,479 c 0,15.195 -1.137,30.917 0.715,46 0.627,5.099 0.807,10.511 3.204,14.999 3.082,5.77 9.37,10.126 15.081,12.046 3.363,1.13 6.237,0.972 10,0.954 4.608,-0.022 7.053,-0.376 11,-2.018 5.08,-2.115 10.465,-6.602 12.941,-11.981 2.599,-5.643 3.057,-12.685 3.059,-19 v -41 m 224,0 v 72 m -193,2 c 1.654,-4.859 4.58,-11.719 7.719,-19 6.192,-14.363 12.217,-29.702 18.566,-44 1.919,-4.323 3.5,-9.018 8.715,-9.147 4.761,-0.118 6.732,3.496 8.381,7.162 3.836,8.526 9.481,21.829 12.18,30.985 1.641,5.565 1.137,9.066 3.362,12.714 1.703,2.794 3.423,4.193 4.545,6.301 2.778,5.216 4.38,10.122 5.532,14.985 M 186,518 h 48 m 39,0 h 34 m 440,6 c 3.796,0 5.351,0 9,0 8.164,0 18.545,0 24,0 m -79,8 c -5.353,2.857 -9.489,2 -24,2"
       id="path1027" />
  </g>
</svg>
